<svg width="2342" height="2342" viewBox="0 0 2342 2342" fill="none" xmlns="http://www.w3.org/2000/svg">
<path d="M1108.53 0.608611C1097.2 1.14194 1081.87 2.34194 1074.53 3.14194C1067.33 3.94194 1054.4 5.27528 1046 5.94194C1030.13 7.27528 1004 10.8753 977.867 15.4086C969.467 16.8753 960.4 18.3419 957.867 18.6086C950.4 19.5419 902.133 30.2086 887.733 34.0753C882.533 35.5419 876.533 37.0086 874.4 37.4086C872.267 37.6753 867.733 39.0086 864.267 40.0753C860.933 41.1419 856.4 42.3419 854.267 42.7419C852.267 43.1419 847.2 44.4753 843.2 45.8086C839.2 47.1419 830.8 49.8086 824.533 51.6753C810.4 56.0753 773.467 68.7419 761.867 73.1419C757.067 74.8753 746.667 78.8753 738.533 81.9419C730.533 84.8753 723.333 87.8086 722.533 88.4753C721.867 89.0086 717.067 91.1419 711.867 93.1419C706.8 95.1419 699.2 98.2086 695.2 100.075C691.2 101.942 685.467 104.609 682.533 105.942C674.667 109.542 623.067 135.009 619.2 137.275C617.333 138.342 611.333 141.675 605.867 144.742C586.667 155.409 569.467 165.542 548.4 178.609C547.067 179.275 543.067 181.675 539.333 183.942C535.6 186.075 532.533 188.342 532.533 188.875C532.533 189.542 532 189.942 531.333 189.942C530.667 189.942 525.733 193.009 520.267 196.609C496.4 213.009 492.533 215.675 481.733 223.542C465.6 235.275 449.333 247.542 448.533 248.609C448.133 249.009 444.267 252.209 439.867 255.675C357.467 320.875 275.867 407.275 216 492.742C204.667 508.875 185.867 536.742 185.867 537.275C185.867 537.675 183.2 541.809 179.867 546.742C176.533 551.542 173.867 555.675 173.867 555.942C173.867 556.209 169.733 563.275 164.667 571.542C159.733 579.809 150 596.742 143.333 609.275C136.533 621.675 130.533 633.009 129.733 634.342C123.733 645.142 99.7333 695.809 95.2 707.142C93.7333 710.875 91.3333 717.142 89.7333 720.875C88.2667 724.742 86.4 728.475 85.7333 729.275C85.0667 729.942 84.5333 731.275 84.5333 732.342C84.5333 733.409 83.0667 737.675 81.3333 741.809C77.0667 751.942 72.2667 764.342 72.4 765.142C72.4 765.542 71.2 768.742 69.7333 772.209C68.1333 775.809 66.4 780.342 65.8667 782.609C65.2 784.742 62.4 793.542 59.4667 801.942C54.4 817.009 43.3333 854.209 38.1333 873.942C31.2 899.942 29.7333 905.942 28 914.609C26.9333 919.675 25.4667 926.875 24.6667 930.609C21.2 946.742 17.8667 964.342 17.2 969.275C16.8 972.209 15.3333 981.142 13.8667 989.275C12.5333 997.275 10.9333 1007.81 10.5333 1012.61C10.1333 1017.41 8.8 1027.01 7.86667 1033.94C6.8 1040.88 5.6 1050.74 5.2 1055.94C4.8 1061.01 3.46667 1078.21 2.26667 1093.94C0.666667 1113.54 0 1137.41 0 1169.94C0 1213.94 0.533333 1226.34 5.33333 1286.61C5.73333 1291.68 6.93333 1301.28 7.86667 1307.94C8.8 1314.48 10 1323.81 10.5333 1328.61C11.0667 1333.41 12.2667 1342.08 13.3333 1347.94C14.2667 1353.81 15.7333 1363.14 16.5333 1368.61C20.5333 1397.68 39.2 1476.48 50 1509.28C51.3333 1513.68 52.8 1518.48 53.2 1519.94C53.4667 1521.41 56.1333 1529.81 59.2 1538.61C62.1333 1547.41 64.9333 1555.81 65.2 1557.14C65.6 1558.61 67.0667 1563.14 68.6667 1567.14C72.9333 1578.21 77.3333 1589.41 81.2 1599.94C96.2667 1640.21 126.4 1703.01 154.4 1752.61C161.333 1764.88 177.467 1791.68 178.933 1793.28C179.467 1794.08 181.733 1797.68 183.867 1801.28C186 1805.01 188.133 1808.21 188.533 1808.61C189.067 1809.01 191.867 1813.14 194.933 1817.94C198 1822.74 200.933 1827.14 201.467 1827.94C202.133 1828.61 205.6 1833.68 209.2 1839.01C218.8 1853.28 219.333 1853.94 224.933 1861.28C227.6 1864.88 231.067 1869.41 232.4 1871.28C257.067 1903.94 270.667 1920.61 293.6 1946.61C313.6 1969.14 348.667 2005.94 350.133 2005.94C351.333 2005.94 355.6 1999.28 362.533 1986.61C365.333 1981.41 368.667 1975.81 369.867 1973.94C371.067 1972.08 374.4 1966.34 377.2 1961.28C380.133 1956.08 382.8 1951.68 383.2 1951.28C383.733 1950.88 386.533 1946.08 389.467 1940.61C392.4 1935.14 398 1925.14 401.867 1918.61C411.067 1902.74 413.6 1898.48 417.6 1891.28C419.333 1887.94 424.267 1879.54 428.533 1872.61C432.667 1865.68 438.933 1854.88 442.4 1848.61C445.733 1842.34 453.333 1829.14 459.2 1819.28C465.067 1809.41 470.667 1799.41 471.867 1797.28C472.933 1795.01 474.667 1792.08 475.6 1790.61C476.533 1789.14 479.467 1784.08 482.267 1779.28C485.067 1774.48 487.867 1769.68 488.533 1768.61C489.2 1767.54 492.933 1760.88 496.933 1753.94C514.8 1722.48 521.2 1711.68 524.133 1707.14C525.733 1704.61 527.2 1702.08 527.2 1701.54C527.2 1701.01 529.6 1696.61 532.533 1691.81C535.467 1687.01 537.867 1682.74 537.867 1682.61C537.867 1682.34 540.8 1677.41 544.4 1671.54C548 1665.68 552.8 1657.41 555.2 1653.14C565.333 1634.88 581.467 1606.74 587.867 1595.94C590.933 1590.74 595.2 1583.54 597.2 1579.94C602.4 1570.88 608.667 1559.94 611.867 1554.48C613.333 1552.08 618.533 1542.88 623.6 1534.34C628.533 1525.68 634.133 1515.94 636.133 1512.61C638 1509.28 641.333 1503.28 643.6 1499.28C645.867 1495.28 648.667 1490.48 649.867 1488.61C651.067 1486.74 655.867 1478.48 660.667 1470.08C672 1450.08 674.133 1446.21 677.867 1439.94C679.6 1437.01 682.667 1431.54 684.8 1427.94C686.933 1424.21 690.133 1418.88 691.867 1415.94C693.733 1413.01 696.133 1408.74 697.333 1406.61C700.4 1400.61 703.333 1395.41 710 1384.48C713.2 1379.01 716.533 1373.41 717.467 1371.94C718.267 1370.48 720 1367.41 721.067 1365.28C722.133 1363.01 724.667 1358.61 726.667 1355.28C728.667 1351.94 731.467 1347.14 732.8 1344.61C735.2 1340.48 746.533 1320.74 749.867 1315.28C750.533 1314.21 754.267 1307.54 758.267 1300.61C762.267 1293.68 768.667 1282.48 772.533 1275.94C776.4 1269.28 781.067 1261.28 782.8 1257.94C784.667 1254.61 787.867 1249.28 789.867 1245.94C791.867 1242.61 797.867 1232.08 803.2 1222.61C808.533 1213.01 814 1203.81 815.2 1201.94C816.4 1200.08 819.6 1194.74 822.133 1189.94C824.8 1185.14 829.867 1176.21 833.6 1169.94C842.4 1155.01 862.8 1119.54 872.8 1101.94C877.2 1094.21 886.267 1078.34 893.067 1066.61C921.733 1017.41 930.667 1001.81 938.8 987.409C943.6 979.009 950 967.809 953.2 962.742C956.267 957.542 960.667 949.942 962.933 945.942C965.2 941.942 970 933.542 973.733 927.275C977.467 921.009 982.4 912.342 984.667 908.075C986.933 903.675 990.133 897.942 991.867 895.409C996.533 887.809 1007.87 868.609 1012.13 860.609C1016.53 852.475 1019.33 847.409 1025.87 836.609C1028.27 832.609 1032 825.942 1034.27 821.942C1036.4 817.942 1039.47 812.475 1041.07 809.942C1044.4 804.475 1043.87 805.409 1058.93 779.275C1065.47 767.942 1076.27 749.009 1083.2 737.275C1090 725.542 1097.07 713.275 1098.93 709.942C1100.8 706.609 1106.4 696.742 1111.6 687.942C1116.67 679.142 1122.4 669.275 1124.27 665.942C1126 662.609 1129.2 657.275 1131.2 653.942C1133.2 650.609 1137.33 643.542 1140.4 638.209C1148.8 623.675 1149.33 626.075 1141.6 643.275C1139.33 648.075 1136.13 655.275 1134.4 659.275C1132.53 663.275 1129.73 669.542 1128 673.275C1126.27 676.875 1118.93 693.142 1111.87 709.275C1104.67 725.409 1097.6 740.742 1096.27 743.275C1094.93 745.809 1093.87 748.342 1093.87 748.875C1093.87 749.275 1091.87 754.075 1089.33 759.542C1086.93 764.875 1076.93 787.009 1067.2 808.609C1048.8 849.409 1047.73 851.809 1036.8 875.942C1030.67 889.409 1015.47 923.275 1009.87 935.942C1008.53 938.875 994.4 970.075 978.533 1005.28C962.533 1040.48 949.067 1070.74 948.267 1072.61C946.667 1077.14 942.533 1086.21 932.8 1107.28C930.667 1112.08 927.867 1118.08 926.8 1120.61C924.933 1124.88 921.867 1131.81 915.067 1146.88C909.333 1159.81 907.2 1164.34 903.333 1172.88C901.067 1177.81 899.2 1182.08 899.2 1182.48C899.2 1182.88 896.8 1188.34 893.733 1194.88C883.867 1215.94 880.933 1222.48 876.533 1232.61C874.133 1238.08 871.733 1243.14 871.2 1243.94C870.667 1244.61 869.733 1246.74 869.2 1248.61C868.667 1250.48 865.733 1257.01 862.933 1263.28C860 1269.54 856.133 1277.94 854.4 1281.94C852.533 1285.94 850 1291.68 848.667 1294.61C847.333 1297.54 845.2 1302.34 843.867 1305.28C831.2 1333.81 791.6 1421.68 783.467 1439.28C781.867 1442.61 776.667 1454.21 771.733 1465.28C759.6 1492.61 747.067 1520.74 741.867 1531.94C739.467 1537.01 734 1549.41 729.6 1559.28C725.2 1569.14 719.467 1581.81 716.933 1587.28C714.267 1592.74 710.133 1602.08 707.6 1607.94C705.067 1613.81 700.667 1623.54 697.733 1629.68C694.933 1635.81 692.533 1641.14 692.533 1641.54C692.533 1641.94 690.667 1646.21 688.4 1651.14C686.133 1655.94 683.2 1662.34 681.867 1665.28C680.533 1668.21 677.867 1674.21 675.867 1678.61C673.867 1683.01 671.333 1688.74 670.267 1691.28C668.4 1695.68 666.8 1699.01 658.8 1716.61C656.933 1720.61 653.867 1727.54 651.867 1731.94C645.067 1747.41 642.533 1753.14 632.533 1774.61C629.467 1781.14 626.133 1788.88 625.067 1791.68C624.133 1794.48 622.4 1798.34 621.333 1800.34C620.267 1802.34 618.133 1806.61 616.667 1809.94C612.667 1819.01 562 1932.21 558.533 1939.94C556.8 1943.54 550.267 1958.34 543.867 1972.61C537.467 1986.88 527.733 2008.48 522.133 2020.61C516.667 2032.74 510 2047.68 507.2 2053.94C504.4 2060.21 500.533 2068.88 498.533 2073.28C487.6 2096.88 480.533 2113.28 480.533 2114.74C480.533 2116.48 483.467 2119.01 495.2 2127.41C499.2 2130.21 503.2 2133.14 503.867 2133.68C508.667 2137.41 542.667 2159.28 543.867 2159.28C544.667 2159.28 546.8 2156.48 548.8 2152.88C552.8 2145.54 559.733 2133.54 563.067 2127.94C566.533 2122.08 573.067 2110.74 579.6 2099.28C581.067 2096.48 594.533 2073.28 604.533 2055.94C605.733 2053.68 608.8 2048.61 611.2 2044.61C613.6 2040.61 617.333 2033.94 619.6 2029.94C621.733 2025.94 624.8 2020.48 626.4 2017.94C631.467 2009.68 632.4 2008.08 634.933 2003.28C636.267 2000.74 640.667 1993.14 644.533 1986.61C648.4 1979.94 652.8 1972.48 654.133 1969.94C655.467 1967.41 658.133 1962.88 659.867 1959.94C662.8 1955.28 670 1942.74 678.667 1927.54C680.267 1924.88 688.267 1910.88 696.533 1896.61C704.8 1882.34 717.333 1860.74 724.267 1848.61C731.2 1836.48 737.867 1824.74 739.2 1822.61C746.933 1809.54 761.333 1784.61 763.467 1780.61C764.933 1778.08 766.8 1774.74 767.6 1773.28C768.533 1771.81 771.6 1766.48 774.533 1761.54C777.467 1756.48 781.2 1750.21 782.8 1747.54C784.4 1744.74 786.667 1740.74 787.733 1738.61C788.933 1736.34 791.6 1731.54 793.867 1727.94C796.133 1724.21 798.267 1720.21 798.667 1719.01C799.2 1717.68 800 1716.61 800.667 1716.61C801.333 1716.61 801.867 1715.94 801.867 1715.28C801.867 1714.48 804.267 1709.94 807.2 1705.14C810.133 1700.34 812.533 1696.08 812.533 1695.81C812.533 1695.41 817.733 1686.34 824.133 1675.54C830.4 1664.74 836.4 1654.48 837.467 1652.61C840.8 1646.48 864.8 1604.88 888.533 1563.94C895.867 1551.41 906.933 1532.21 913.2 1521.28C919.6 1510.21 926.8 1497.68 929.467 1493.28C932 1488.88 935.733 1482.21 937.733 1478.61C939.733 1474.88 943.867 1467.81 946.933 1462.74C950 1457.81 952.533 1453.41 952.533 1453.14C952.533 1452.88 954.4 1449.54 956.667 1445.68C959.067 1441.81 962 1436.74 963.2 1434.61C970.4 1422.34 975.867 1412.61 978.8 1407.28C980.667 1403.94 983.467 1399.14 985.067 1396.61C990 1388.48 992.533 1384.08 995.467 1378.34C998.667 1371.94 999.067 1373.41 988.267 1349.94C985.333 1343.68 981.467 1335.01 979.733 1330.61C977.867 1326.21 974.933 1319.28 972.933 1315.28C971.067 1311.28 968.8 1306.08 967.867 1303.94C966.933 1301.68 964.267 1296.08 962.133 1291.28C960 1286.48 956.667 1279.28 954.8 1275.28C953.067 1271.28 950.267 1265.14 948.667 1261.68C947.2 1258.21 945.867 1255.01 945.867 1254.61C945.867 1254.08 941.067 1243.41 932.533 1225.28C925.6 1210.34 918.267 1193.94 916.4 1188.61C915.333 1185.54 915.467 1185.54 918.533 1189.28C920.4 1191.41 922.8 1195.41 924.133 1197.94C925.333 1200.48 928.8 1206.74 931.867 1211.94C934.933 1217.01 938.933 1223.94 940.8 1227.28C942.667 1230.61 948.533 1240.74 953.867 1249.94C959.2 1259.14 964.933 1268.88 966.4 1271.54C973.6 1284.21 987.6 1308.48 990.533 1313.28C992.4 1316.21 994.533 1320.08 995.467 1321.94C996.4 1323.81 999.867 1329.81 1003.2 1335.28C1006.53 1340.74 1009.73 1346.48 1010.27 1347.81C1011.2 1350.34 1011.33 1350.34 1013.33 1347.54C1015.47 1344.48 1022.27 1332.61 1028.93 1320.61C1031.07 1316.61 1033.33 1312.61 1034 1311.94C1034.93 1310.61 1062.13 1263.68 1067.87 1253.28C1072.4 1244.88 1075.87 1239.01 1081.73 1229.28C1084.8 1224.34 1087.2 1220.08 1087.2 1219.81C1087.2 1219.54 1089.07 1216.21 1091.33 1212.34C1097.33 1202.21 1098.8 1199.68 1112 1176.61C1118.4 1165.28 1124.13 1155.68 1124.53 1155.28C1124.93 1154.88 1128.4 1149.01 1132.13 1142.21C1138.53 1130.61 1138.93 1129.54 1137.2 1126.21C1135.47 1122.74 1132.8 1117.01 1125.2 1099.94C1123.2 1095.54 1120.13 1088.61 1118.27 1084.61C1116.4 1080.61 1114.13 1075.41 1113.07 1073.28C1112.13 1071.01 1109.47 1065.28 1107.33 1060.21C1105.07 1055.28 1103.2 1050.88 1103.2 1050.48C1103.2 1050.08 1100.8 1044.88 1098 1038.88C1095.07 1032.88 1090.8 1023.41 1088.4 1017.94C1086.13 1012.48 1081.6 1002.48 1078.4 995.809C1075.33 989.275 1071.2 979.942 1069.2 975.142C1067.2 970.475 1063.87 962.742 1061.6 957.942C1050.27 933.275 1045.73 922.875 1046.13 921.675C1046.53 920.475 1057.33 937.809 1066.53 954.609C1068.53 958.209 1072.27 964.875 1074.93 969.275C1081.6 980.742 1084.67 986.075 1086.8 989.942C1087.87 991.809 1092.27 999.275 1096.53 1006.61C1100.93 1013.94 1108.53 1027.01 1113.47 1035.68C1118.4 1044.34 1123.87 1053.68 1125.47 1056.34C1127.07 1059.01 1130 1064.61 1132.27 1068.61C1134.4 1072.61 1137.6 1078.21 1139.33 1080.88C1141.07 1083.54 1144.93 1090.08 1147.87 1095.14C1154 1106.08 1152.93 1106.48 1162.93 1088.74C1166.4 1082.61 1170.53 1075.41 1172.13 1072.74C1173.73 1070.08 1176.4 1065.54 1178 1062.61C1179.6 1059.68 1185.07 1050.08 1190.27 1041.28C1195.33 1032.48 1201.33 1021.94 1203.6 1017.94C1205.87 1013.94 1208.67 1009.14 1209.87 1007.28C1211.07 1005.41 1214.67 999.409 1217.73 993.942C1220.8 988.475 1223.87 983.009 1224.53 981.942C1231.2 970.875 1243.2 949.675 1243.2 949.142C1243.2 948.742 1244.27 946.742 1245.73 944.875C1248.27 941.142 1252.53 933.942 1256.8 925.942C1258.13 923.409 1260.8 918.875 1262.53 915.942C1264.4 913.009 1267.07 908.342 1268.53 905.675C1270.8 901.409 1273.87 897.942 1273.87 899.675C1273.87 900.342 1259.47 932.875 1252.53 947.942C1250.13 953.009 1244.8 965.009 1240.53 974.609C1236.27 984.075 1230.93 996.075 1228.53 1001.28C1225.07 1008.88 1209.6 1043.54 1201.2 1062.61C1200.27 1064.74 1197.2 1071.41 1194.53 1077.28C1187.33 1092.88 1185.07 1097.94 1182.53 1103.94C1181.2 1106.88 1178.8 1112.21 1177.07 1115.94C1170.27 1130.61 1169.73 1132.61 1171.73 1136.48C1174 1141.01 1184.4 1159.01 1187.07 1163.28C1188.27 1165.14 1193.33 1173.81 1198.27 1182.61C1203.33 1191.41 1208.53 1200.34 1209.87 1202.61C1211.2 1204.74 1216.53 1214.08 1221.87 1223.28C1227.2 1232.48 1232.93 1242.34 1234.67 1245.28C1236.4 1248.21 1238.67 1252.34 1239.87 1254.61C1241.07 1256.74 1243.47 1261.01 1245.2 1263.94C1247.07 1266.88 1250.13 1272.21 1252.27 1275.68C1258.27 1286.48 1259.87 1289.14 1262.13 1292.61C1263.2 1294.48 1266 1299.28 1268.13 1303.28C1271.6 1309.68 1274.53 1314.61 1284.8 1331.94C1286.13 1334.08 1288.13 1337.81 1289.2 1340.08C1293.33 1349.28 1294.13 1348.74 1304.8 1330.61C1310.13 1321.41 1315.73 1311.54 1317.33 1308.88C1318.8 1306.21 1323.33 1298.48 1327.2 1291.94C1331.07 1285.28 1335.73 1277.28 1337.6 1273.94C1339.33 1270.61 1346 1259.28 1352.27 1248.61C1366.93 1223.54 1376.93 1206.34 1379.73 1201.28C1380.93 1199.01 1383.47 1194.88 1385.2 1191.94C1386.93 1189.01 1389.2 1184.74 1390.4 1182.61C1392.67 1177.94 1397.73 1171.41 1397.87 1173.01C1397.87 1173.68 1397.07 1176.08 1396 1178.34C1377.07 1220.88 1347.6 1286.34 1345.73 1289.94C1344.27 1292.48 1343.2 1295.01 1343.2 1295.54C1343.2 1296.08 1340.93 1301.54 1338.13 1307.54C1335.33 1313.68 1330.93 1323.14 1328.53 1328.61C1324.67 1337.41 1321.47 1344.48 1311.07 1367.01L1308.53 1372.74L1313.47 1381.68C1316.13 1386.61 1322.67 1397.81 1327.87 1406.61C1333.07 1415.41 1337.73 1423.54 1338.27 1424.61C1338.8 1425.68 1340.8 1429.41 1342.8 1432.88C1355.47 1454.48 1362.67 1466.88 1363.6 1468.61C1364.13 1469.68 1366 1472.88 1367.6 1475.54C1369.2 1478.21 1374.67 1487.54 1379.6 1496.21C1384.53 1504.88 1390 1514.34 1391.73 1517.28C1395.6 1523.81 1413.73 1555.01 1415.73 1558.61C1416.67 1560.08 1419.33 1564.88 1421.87 1569.28C1424.4 1573.68 1427.47 1578.88 1428.53 1580.88C1429.6 1582.74 1432.13 1587.28 1434.13 1590.88C1436.13 1594.34 1439.6 1600.21 1441.87 1603.94C1444.13 1607.54 1448 1614.48 1450.53 1619.28C1453.2 1624.08 1457.2 1630.88 1459.47 1634.61C1461.73 1638.21 1465.07 1643.94 1466.93 1647.28C1468.8 1650.61 1471.33 1655.01 1472.67 1657.28C1474 1659.41 1478.27 1667.01 1482.27 1673.94C1486.27 1680.88 1491.6 1690.21 1494.13 1694.61C1508.67 1719.41 1514.93 1730.08 1521.07 1740.88C1522.67 1743.54 1529.33 1755.14 1535.87 1766.61C1542.53 1777.94 1549.2 1789.54 1550.67 1792.34C1552.27 1795.01 1557.73 1804.48 1562.8 1813.28C1568 1822.08 1575.6 1835.28 1579.87 1842.61C1584.13 1849.94 1591.73 1863.14 1596.8 1871.94C1601.87 1880.74 1606.53 1888.88 1607.2 1889.94C1607.87 1891.01 1610.67 1895.81 1613.33 1900.61C1616 1905.41 1619.87 1911.94 1621.87 1915.28C1623.87 1918.61 1627.07 1923.94 1628.8 1927.28C1630.67 1930.61 1636.53 1940.74 1641.87 1949.94C1647.2 1959.01 1652.67 1968.34 1653.87 1970.61C1660.8 1982.88 1674 2005.54 1675.2 2007.28C1675.87 2008.34 1677.6 2011.41 1678.93 2013.94C1680.27 2016.48 1684.67 2023.94 1688.53 2030.61C1692.4 2037.14 1696.53 2044.34 1697.87 2046.61C1699.07 2048.74 1701.73 2053.28 1703.73 2056.61C1705.6 2059.94 1709.33 2066.48 1712 2071.28C1717.47 2081.41 1728.27 2099.81 1731.47 2104.61C1732.67 2106.48 1735.33 2111.01 1737.47 2114.74C1748 2133.81 1753.2 2142.88 1755.2 2145.94C1756.4 2147.81 1759.47 2152.88 1761.87 2157.28C1770.8 2173.54 1771.87 2175.28 1772.53 2175.28C1773.2 2175.28 1777.87 2172.48 1793.47 2162.88C1808.67 2153.68 1838.13 2133.94 1844.27 2129.01L1847.33 2126.48L1842.13 2115.28C1839.2 2109.01 1824.67 2076.88 1809.87 2043.94C1795.07 2010.88 1781.2 1980.08 1778.93 1975.28C1776.8 1970.48 1766.27 1947.14 1755.73 1923.28C1745.07 1899.41 1735.87 1878.88 1735.07 1877.68C1734.4 1876.34 1727.2 1860.61 1719.2 1842.61C1711.07 1824.61 1702.93 1806.48 1700.93 1802.21C1696.27 1791.94 1680.53 1757.01 1667.87 1728.61C1662.13 1715.81 1654.93 1699.68 1651.73 1692.88C1648.53 1686.08 1645.87 1680.21 1645.87 1679.94C1645.87 1679.68 1643.2 1673.54 1639.87 1666.48C1636.53 1659.41 1633.87 1653.41 1633.87 1653.14C1633.87 1652.74 1631.73 1647.81 1629.07 1642.21C1624 1631.54 1585.87 1547.14 1577.07 1527.28C1570.4 1511.94 1567.2 1504.88 1560 1489.68C1556.67 1482.48 1553.87 1475.81 1553.87 1474.88C1553.87 1473.94 1553.33 1472.61 1552.67 1471.81C1552 1471.14 1547.73 1462.21 1543.2 1451.94C1538.8 1441.68 1534.53 1432.34 1533.87 1431.01C1533.2 1429.81 1527.73 1417.81 1521.73 1404.34C1515.73 1391.01 1508.67 1375.14 1505.87 1369.28C1503.2 1363.41 1497.73 1351.41 1494 1342.61C1490.13 1333.81 1486 1324.48 1484.67 1321.94C1483.33 1319.41 1479.07 1310.08 1475.2 1301.28C1471.33 1292.48 1465.87 1280.34 1462.93 1274.21C1460.13 1268.21 1457.87 1262.88 1457.87 1262.48C1457.87 1262.08 1456 1257.81 1453.73 1252.88C1451.47 1247.94 1448.4 1241.28 1446.8 1237.94C1445.33 1234.61 1443.73 1231.01 1443.2 1229.94C1442.67 1228.88 1435.73 1213.54 1427.87 1195.94C1413.33 1163.54 1412 1160.74 1401.33 1137.54C1398 1130.34 1395.33 1124.34 1395.33 1124.21C1395.33 1123.94 1392.13 1116.48 1386.53 1103.94C1385.6 1101.68 1383.2 1096.61 1381.33 1092.61C1379.47 1088.61 1376.4 1081.68 1374.4 1077.28C1372.53 1072.88 1370.13 1067.81 1369.33 1065.94C1368.4 1064.08 1364.4 1055.41 1360.67 1046.61C1356.8 1037.81 1353.2 1029.68 1352.67 1028.61C1352 1027.54 1347.87 1018.21 1343.33 1007.94C1338.67 997.675 1333.87 987.142 1332.53 984.609C1331.33 982.075 1325.87 970.075 1320.53 957.942C1315.2 945.809 1308.67 931.142 1305.87 925.275C1303.07 919.409 1298.93 910.075 1296.53 904.609C1292 894.075 1289.6 888.742 1280.67 869.542C1277.6 863.009 1275.2 857.542 1275.2 857.142C1275.2 856.742 1272.27 850.209 1268.53 842.475C1264.93 834.742 1261.87 828.075 1261.87 827.675C1261.87 826.875 1256.27 814.342 1253.87 809.675C1253.2 808.475 1247.73 796.475 1241.73 783.009C1235.73 769.675 1228.67 753.809 1225.87 747.942C1223.2 742.075 1217.73 730.075 1214 721.275C1210.13 712.475 1205.73 702.609 1204.27 699.275C1202.67 695.942 1200.13 690.209 1198.4 686.609C1196.8 682.875 1193.87 676.609 1192.13 672.609C1190.27 668.609 1187.47 662.209 1185.87 658.609C1184.27 654.875 1181.47 648.609 1179.6 644.609C1171.07 625.675 1169.6 621.942 1170.93 621.942C1171.47 621.942 1174.27 626.209 1177.2 631.542C1189.07 652.742 1193.33 660.075 1195.33 663.275C1198.4 668.075 1210 688.209 1213.73 695.275C1215.6 698.609 1220.27 706.609 1224.27 713.275C1228.27 719.809 1234 729.809 1236.93 735.275C1239.87 740.742 1243.33 746.742 1244.53 748.609C1246.53 751.409 1268.4 789.275 1276.93 804.609C1278.27 807.142 1280.8 811.409 1282.4 814.075C1283.87 816.875 1288 824.075 1291.6 830.075C1295.07 836.209 1299.47 843.942 1301.33 847.142C1303.2 850.342 1310 862.075 1316.4 873.142C1322.93 884.209 1329.47 895.675 1331.07 898.609C1332.53 901.542 1335.47 906.742 1337.47 910.075C1339.6 913.409 1346.67 925.675 1353.2 937.142C1359.87 948.609 1366.53 960.342 1368.27 963.009C1369.87 965.675 1372 969.409 1372.8 971.275C1373.73 973.142 1375.73 976.742 1377.33 979.275C1378.93 981.809 1384.53 991.409 1389.73 1000.61C1395.07 1009.81 1400 1018.21 1400.67 1019.28C1401.33 1020.34 1402.67 1022.74 1403.6 1024.61C1404.93 1027.54 1408.13 1033.01 1419.47 1051.94C1420.8 1054.08 1422.8 1057.68 1424 1059.94C1425.07 1062.08 1426.8 1065.14 1427.6 1066.61C1428.53 1068.08 1431.87 1073.81 1434.93 1079.28C1438.13 1084.74 1441.2 1090.21 1441.87 1091.28C1442.53 1092.34 1445.33 1097.14 1448 1101.94C1452.27 1109.41 1463.6 1129.14 1467.2 1135.28C1467.87 1136.34 1472.13 1143.81 1476.8 1151.81C1481.47 1159.68 1486.67 1168.74 1488.53 1171.94C1491.6 1177.14 1499.6 1191.28 1508.67 1207.14C1510.53 1210.48 1513.33 1215.54 1514.93 1218.21C1516.53 1221.01 1518.93 1225.28 1520.4 1227.54C1525.73 1236.88 1533.2 1249.68 1538.8 1258.88C1541.87 1264.21 1544.53 1269.01 1544.53 1269.68C1544.53 1270.21 1545.6 1272.08 1546.93 1273.94C1548.13 1275.68 1551.33 1280.88 1553.87 1285.41C1563.87 1303.14 1571.33 1316.21 1574.4 1321.28C1579.73 1330.48 1600.13 1365.68 1601.07 1367.54C1601.6 1368.48 1603.33 1371.54 1604.93 1374.21C1609.2 1381.41 1630 1417.81 1632.93 1423.28C1634.4 1425.81 1638.13 1432.34 1641.33 1437.54C1644.53 1442.88 1647.2 1447.54 1647.2 1447.94C1647.2 1448.34 1648.67 1450.88 1650.4 1453.68C1654.8 1460.48 1672 1490.21 1672.93 1492.61C1673.47 1493.68 1675.33 1497.01 1677.2 1499.94C1678.93 1502.88 1682 1507.94 1683.87 1511.28C1688.27 1519.14 1691.47 1524.48 1694.13 1528.61C1695.2 1530.48 1698 1535.28 1700.27 1539.28C1702.4 1543.28 1707.73 1552.61 1711.87 1559.94C1716.13 1567.28 1721.87 1577.14 1724.53 1581.94C1727.2 1586.74 1731.6 1594.34 1734.27 1598.88C1737.07 1603.41 1739.2 1607.41 1739.2 1607.81C1739.2 1608.21 1740.93 1611.01 1743.07 1614.21C1745.07 1617.41 1748.67 1623.28 1750.8 1627.28C1753.07 1631.28 1756.13 1637.01 1757.87 1639.94C1759.6 1642.88 1762.27 1647.41 1763.73 1650.21C1765.33 1652.88 1769.47 1660.08 1773.07 1666.21C1776.53 1672.21 1780.8 1679.68 1782.4 1682.61C1785.47 1688.08 1786.13 1689.14 1797.87 1709.28C1806.27 1723.68 1809.47 1729.14 1812.8 1735.28C1814.27 1737.81 1816.4 1741.68 1817.73 1743.94C1819.07 1746.08 1826 1758.08 1833.2 1770.61C1840.27 1783.01 1846.53 1793.81 1847.2 1794.61C1847.73 1795.28 1850.27 1799.81 1852.93 1804.61C1855.47 1809.41 1860.67 1818.61 1864.53 1825.28C1873.33 1840.34 1872.93 1839.54 1893.07 1874.61C1902.27 1890.74 1910.4 1904.88 1911.2 1905.94C1911.87 1907.01 1915.2 1912.74 1918.53 1918.61C1921.87 1924.48 1926.13 1931.94 1928 1935.28C1930 1938.61 1932.8 1943.41 1934.13 1945.94C1935.6 1948.48 1938.8 1953.94 1941.2 1957.94C1943.6 1961.94 1947.33 1968.61 1949.47 1972.61C1951.73 1976.61 1956.67 1985.28 1960.53 1991.94C1964.4 1998.48 1969.07 2006.34 1970.8 2009.28C1972.53 2012.21 1974.27 2015.68 1974.67 2017.01C1975.2 2018.21 1976.27 2019.28 1977.07 2019.28C1978.4 2019.28 2012.8 1985.41 2026.67 1970.48C2041.6 1954.61 2054.93 1939.41 2063.87 1928.61C2069.6 1921.68 2074.93 1915.28 2075.73 1914.61C2079.73 1911.14 2117.87 1861.01 2127.2 1846.88C2130.53 1841.94 2133.6 1837.94 2134.27 1837.94C2134.8 1837.94 2135.2 1837.41 2135.2 1836.61C2135.2 1835.28 2145.33 1819.94 2148.27 1816.88C2149.2 1815.81 2150.8 1813.28 2152 1811.14C2153.07 1809.01 2157.33 1801.94 2161.6 1795.54C2165.73 1789.14 2169.73 1782.74 2170.53 1781.28C2171.33 1779.81 2175.73 1772.61 2180.13 1765.28C2184.53 1757.94 2191.07 1746.48 2194.53 1739.94C2198.13 1733.28 2203.2 1724.08 2205.87 1719.28C2211.2 1709.54 2236.53 1658.61 2236.53 1657.28C2236.53 1656.88 2238.4 1652.48 2240.67 1647.54C2242.93 1642.61 2245.6 1636.74 2246.53 1634.61C2247.47 1632.34 2248.93 1628.74 2249.87 1626.61C2275.2 1566.88 2296.8 1500.21 2312.4 1433.94C2316 1418.48 2326.8 1361.68 2327.87 1352.61C2328.4 1348.61 2329.6 1340.21 2330.53 1333.94C2331.6 1327.68 2332.8 1319.54 2333.2 1315.94C2333.6 1312.21 2335.07 1298.48 2336.53 1285.28C2340.67 1247.41 2342.4 1196.34 2341.33 1145.28C2340.13 1088.21 2340.53 1095.14 2333.2 1024.61C2332.8 1021.28 2331.6 1013.14 2330.53 1006.61C2329.47 999.942 2328 990.342 2327.33 985.275C2326.13 975.809 2320.93 947.542 2317.33 930.609C2316.27 925.409 2315.07 919.809 2314.8 917.942C2314.4 916.075 2313.2 911.009 2312.13 906.609C2310.93 902.209 2309.73 897.142 2309.47 895.275C2309.07 893.409 2306.27 882.609 2303.2 871.275C2300.13 859.942 2297.33 849.542 2297.2 848.342C2294.53 834.875 2266.4 753.275 2257.73 734.342C2256.4 731.142 2255.2 728.209 2255.2 727.809C2255.2 726.875 2249.6 713.409 2245.87 705.275C2244.53 702.342 2241.33 695.142 2238.8 689.275C2230.4 669.942 2212.27 633.675 2198.67 609.275C2181.73 578.875 2180.8 577.142 2175.2 567.675C2172.67 563.409 2170.13 559.009 2169.6 557.942C2169.07 556.875 2164.67 549.942 2159.87 542.609C2155.07 535.275 2150.53 528.342 2149.87 527.275C2149.2 526.209 2144.27 519.009 2138.93 511.275C2133.6 503.542 2127.47 494.475 2125.2 491.275C2123.07 487.942 2120.53 484.475 2119.6 483.275C2118.67 482.209 2114.67 476.742 2110.67 471.275C2106.67 465.809 2102.8 460.609 2102.27 459.942C2101.6 459.142 2095.2 451.142 2087.87 442.075C2063.07 411.275 2060.53 408.209 2055.07 402.075C2052.13 398.742 2045.33 391.142 2040.13 385.275C2027.2 370.609 1967.73 311.275 1954.27 299.675C1948.27 294.342 1942.27 289.009 1940.93 287.675C1937.73 284.609 1890.8 246.475 1883.87 241.275C1880.93 239.142 1878.27 237.009 1877.87 236.609C1876.93 235.542 1859.2 222.742 1842.93 211.409C1838.4 208.075 1831.87 203.542 1828.8 201.409C1825.6 199.142 1822 196.609 1820.8 195.942C1819.47 195.142 1814.8 192.075 1810.13 188.875C1805.47 185.809 1801.07 183.275 1800.4 183.275C1799.73 183.275 1799.2 182.609 1799.2 181.942C1799.2 181.142 1798.67 180.609 1798 180.609C1797.33 180.609 1793.2 178.342 1788.93 175.542C1784.67 172.609 1780.53 170.075 1779.87 169.809C1778.13 169.142 1759.73 158.342 1753.87 154.475C1743.87 148.075 1670.53 109.942 1668.13 109.942C1667.73 109.942 1661.73 107.409 1654.93 104.209C1648.13 101.009 1639.2 97.0086 1635.2 95.2753C1631.2 93.6753 1624.93 90.8753 1621.2 89.2753C1617.6 87.6753 1610.4 84.7419 1605.2 82.7419C1600.13 80.7419 1593.2 77.9419 1589.87 76.4753C1586.53 75.1419 1577.6 71.8086 1569.87 69.2753C1562.13 66.7419 1554 63.6753 1551.6 62.6086C1549.33 61.5419 1546.8 60.6086 1546 60.6086C1545.2 60.6086 1536.53 57.9419 1526.8 54.7419C1517.2 51.5419 1502.27 47.0086 1493.87 44.6086C1485.47 42.3419 1477.07 39.8086 1475.2 39.1419C1473.33 38.6086 1469.73 37.6753 1467.2 37.2753C1464.67 36.8753 1458.67 35.2753 1453.87 33.9419C1449.07 32.6086 1443.07 31.0086 1440.53 30.6086C1438 30.2086 1431.73 28.7419 1426.53 27.2753C1421.47 25.9419 1414.67 24.4753 1411.6 24.0753C1408.4 23.6753 1402.4 22.4753 1398.13 21.4086C1393.87 20.2086 1387.47 19.0086 1383.87 18.6086C1380.13 18.2086 1371.47 16.6086 1364.53 15.2753C1357.6 13.9419 1348.27 12.3419 1343.87 11.9419C1339.47 11.5419 1328.67 10.0753 1319.87 8.74194C1311.07 7.27528 1301.47 6.20861 1298.53 6.07528C1295.6 5.94194 1281.47 4.60861 1267.2 3.14194C1246.53 1.00861 1229.73 0.341944 1185.2 0.0752772C1154.4 -0.19139 1119.87 0.0752772 1108.53 0.608611Z" fill="#E31F26"/>
<path d="M1148.67 1179.68C1145.6 1186.48 1141.6 1195.01 1139.73 1198.61C1138 1202.34 1136.53 1205.68 1136.53 1206.21C1136.53 1206.74 1134.13 1212.34 1131.07 1218.88C1128 1225.28 1124.27 1233.54 1122.67 1237.28C1120.93 1240.88 1117.47 1248.74 1114.8 1254.61C1094.93 1298.74 1077.6 1337.41 1070.53 1353.28C1065.87 1363.54 1060.67 1375.28 1058.8 1379.28C1048.53 1401.68 1045.87 1407.68 1045.87 1408.61C1045.87 1409.14 1048.13 1413.54 1050.93 1418.21C1053.6 1422.88 1056.8 1428.34 1057.87 1430.21C1058.93 1432.21 1063.07 1439.41 1067.07 1446.21C1071.07 1453.01 1075.33 1460.61 1076.8 1462.88C1085.73 1478.74 1098.13 1499.94 1099.07 1501.28C1099.73 1501.94 1102 1505.94 1104.13 1509.94C1113.2 1526.34 1118.93 1536.21 1122.27 1541.54C1124.27 1544.74 1125.87 1547.54 1125.87 1547.94C1125.87 1548.21 1129.33 1554.48 1133.6 1561.54C1137.87 1568.74 1143.6 1578.61 1146.4 1583.54C1149.2 1588.61 1151.87 1592.61 1152.4 1592.61C1153.2 1592.61 1157.87 1584.88 1166.93 1568.08C1169.33 1563.54 1172.8 1557.81 1174.4 1555.28C1176.13 1552.74 1179.73 1546.74 1182.4 1541.94C1185.07 1537.14 1187.87 1532.34 1188.53 1531.28C1190 1528.74 1198.53 1513.81 1202.93 1505.94C1204.67 1502.61 1207.07 1499.01 1208 1497.81C1209.07 1496.74 1209.87 1495.41 1209.87 1495.01C1209.87 1494.48 1212.93 1488.88 1216.67 1482.34C1220.4 1475.94 1224.53 1468.74 1225.87 1466.61C1227.2 1464.34 1231.33 1457.14 1235.2 1450.61C1242 1439.01 1244.53 1434.74 1249.73 1425.54C1251.07 1423.28 1254.4 1417.54 1257.07 1412.88L1262.13 1404.48L1251.87 1381.54C1246.13 1368.88 1239.87 1355.01 1237.87 1350.61C1235.73 1346.21 1226.13 1324.88 1216.4 1303.28C1206.8 1281.68 1194.4 1254.08 1188.93 1241.94C1183.47 1229.81 1175.73 1212.48 1171.6 1203.28C1167.6 1194.08 1162.8 1183.68 1161.07 1180.08C1159.33 1176.34 1157.87 1172.74 1157.87 1171.81C1157.87 1171.01 1157.07 1169.68 1156.13 1168.88C1154.8 1167.68 1153.2 1170.08 1148.67 1179.68Z" fill="#E31F26"/>
<path d="M1276.93 1442.21C1276.8 1443.68 1257.73 1486.61 1254.13 1493.54C1253.33 1494.88 1248.4 1505.81 1243.2 1517.94C1237.87 1530.08 1232.53 1542.08 1231.2 1544.61C1230 1547.14 1227.73 1551.94 1226.13 1555.28C1224.53 1558.61 1223.2 1561.68 1223.2 1562.21C1223.2 1562.74 1220.13 1569.54 1216.53 1577.54C1212.8 1585.41 1208.67 1594.34 1207.33 1597.28C1205.87 1600.21 1203.47 1605.54 1201.87 1609.28C1194.67 1625.54 1192.13 1631.01 1188.93 1637.81C1186.93 1641.81 1185.47 1646.61 1185.47 1648.48C1185.47 1650.34 1188.27 1656.48 1191.6 1661.94C1199.07 1674.34 1209.73 1692.74 1214.13 1700.61C1216 1703.94 1220.53 1711.94 1224.4 1718.34C1228.13 1724.88 1231.2 1730.48 1231.2 1730.74C1231.2 1731.01 1232.67 1733.81 1234.67 1736.74C1236.53 1739.68 1239.07 1744.08 1240.4 1746.34C1241.73 1748.74 1246 1755.94 1249.73 1762.34C1253.47 1768.88 1256.53 1774.48 1256.53 1774.88C1256.53 1775.28 1257.73 1777.14 1259.07 1779.14C1260.53 1781.14 1263.6 1786.34 1266 1790.61C1269.73 1797.54 1279.6 1814.61 1283.2 1820.61C1283.87 1821.68 1287.33 1827.68 1290.8 1833.81C1294.27 1839.94 1298.8 1847.81 1300.8 1851.14C1302.8 1854.48 1305.33 1859.01 1306.53 1861.28C1307.6 1863.41 1309.87 1867.41 1311.47 1869.94C1313.07 1872.48 1318.13 1881.14 1322.8 1889.28C1327.47 1897.28 1331.87 1904.88 1332.53 1905.94C1333.2 1907.01 1335.07 1910.34 1336.67 1913.28C1338.27 1916.21 1342.13 1922.74 1345.2 1927.94C1350.67 1937.01 1353.47 1941.94 1361.2 1955.94C1363.33 1959.54 1365.87 1963.68 1366.93 1964.88C1368 1966.21 1368.53 1967.28 1367.87 1967.28C1367.33 1967.28 1368.4 1969.28 1370.13 1971.54C1372 1973.94 1375.47 1979.81 1378.13 1984.61C1380.67 1989.41 1386 1998.61 1389.87 2005.28C1393.73 2011.81 1398.8 2020.61 1400.93 2024.61C1403.07 2028.61 1406.27 2034.08 1407.87 2036.61C1409.6 2039.14 1412.67 2044.34 1414.8 2048.08C1419.47 2056.61 1428.4 2072.34 1444.53 2099.94C1454.93 2117.94 1463.2 2132.08 1484.67 2169.68C1486.13 2171.94 1488.4 2176.08 1489.87 2178.61C1491.33 2181.14 1493.6 2185.28 1495.07 2187.54C1496.4 2189.94 1499.6 2195.54 1502.13 2199.94C1513.87 2220.21 1515.33 2222.74 1516.53 2224.61C1517.33 2225.68 1518.8 2228.34 1519.87 2230.61C1521.07 2232.74 1523.07 2236.34 1524.4 2238.61C1527.47 2243.54 1541.2 2267.41 1544.93 2274.34C1546.53 2277.01 1548 2279.28 1548.53 2279.28C1550.4 2279.28 1594.27 2263.14 1608.53 2257.28C1613.33 2255.28 1619.87 2252.61 1623.2 2251.41C1626.53 2250.08 1631.47 2247.94 1634.13 2246.48L1639.2 2243.94L1629.73 2222.61C1624.53 2210.88 1619.2 2198.88 1617.87 2195.94C1616.4 2193.01 1613.87 2187.28 1612 2183.28C1610.27 2179.28 1606.27 2170.74 1603.33 2164.21C1600.27 2157.81 1597.87 2152.21 1597.87 2151.81C1597.87 2151.41 1595.2 2145.41 1591.87 2138.34C1588.53 2131.41 1585.87 2125.14 1585.87 2124.48C1585.87 2123.68 1584.67 2120.88 1583.2 2118.21C1580 2112.08 1567.2 2084.61 1567.2 2083.68C1567.2 2083.01 1565.07 2078.08 1559.2 2065.28C1553.33 2052.48 1548.8 2042.48 1545.07 2034.21C1541.2 2025.54 1539.73 2022.34 1534 2009.68C1531.73 2004.74 1529.87 2000.48 1529.87 2000.08C1529.87 1999.68 1527.47 1994.48 1524.67 1988.34C1521.73 1982.21 1516.27 1970.08 1512.53 1961.28C1508.67 1952.48 1502.8 1939.54 1499.6 1932.61C1496.27 1925.68 1492.13 1916.48 1490.4 1912.21C1488.53 1907.94 1485.07 1900.21 1482.67 1894.88C1474 1876.48 1468.53 1864.48 1468.53 1863.94C1468.53 1863.68 1466.27 1858.48 1463.33 1852.34C1460.53 1846.34 1457.73 1839.81 1457.2 1837.94C1456.67 1836.08 1455.73 1833.94 1455.2 1833.28C1454.27 1832.08 1435.6 1791.01 1403.2 1718.61C1395.6 1701.68 1387.2 1683.01 1384.4 1676.88C1381.47 1670.88 1379.2 1665.54 1379.2 1665.14C1379.2 1664.74 1377.33 1660.48 1375.07 1655.54C1372.8 1650.61 1369.73 1643.94 1368.27 1640.61C1366.8 1637.28 1364.27 1631.54 1362.53 1627.94C1360.93 1624.21 1358.27 1618.61 1356.8 1615.28C1355.33 1611.94 1352.53 1605.81 1350.67 1601.68C1348.8 1597.54 1347.2 1593.81 1347.2 1593.41C1347.2 1593.01 1344.4 1586.74 1341.07 1579.68C1332.27 1560.74 1330.53 1557.01 1325.87 1546.61C1320.8 1535.28 1319.07 1531.41 1314.8 1521.94C1308.53 1508.48 1304.53 1499.14 1304.53 1498.48C1304.53 1498.21 1302.27 1493.01 1299.33 1486.88C1296.53 1480.88 1293.07 1473.28 1291.6 1469.94C1284.53 1453.54 1278.4 1440.61 1277.73 1440.61C1277.33 1440.61 1276.93 1441.41 1276.93 1442.21Z" fill="#E31F26"/>
<path d="M1026.93 1449.94C1015.2 1476.34 988.533 1535.28 983.733 1545.68C980.533 1552.48 977.867 1558.34 977.867 1558.74C977.867 1559.14 976.267 1562.88 974.4 1567.01C972.533 1571.14 969.733 1577.28 968.267 1580.61C966.667 1583.94 964.4 1589.01 963.2 1591.94C961.867 1594.88 959.333 1600.61 957.467 1604.61C955.6 1608.61 952.533 1615.54 950.667 1619.94C948.667 1624.34 946 1630.21 944.533 1632.88C943.067 1635.54 941.867 1638.48 941.867 1639.14C941.867 1640.48 936.533 1652.34 927.067 1672.08C924.933 1676.61 923.2 1680.61 923.2 1681.01C923.2 1681.41 920.8 1686.74 918 1692.88C915.067 1699.01 910.8 1708.48 908.533 1713.94C906.133 1719.41 902 1728.74 899.2 1734.61C896.533 1740.48 891.2 1752.48 887.333 1761.28C883.333 1770.08 879.067 1779.28 877.733 1781.68C876.267 1784.08 875.2 1786.61 875.2 1787.14C875.2 1788.08 857.6 1827.41 843.6 1857.94C841.733 1861.94 838 1870.34 835.2 1876.61C832.4 1882.88 828.667 1891.28 826.8 1895.28C824.933 1899.28 819.467 1911.54 814.533 1922.61C809.6 1933.54 799.333 1956.34 791.733 1973.14C784.133 1989.81 777.867 2003.81 777.867 2004.21C777.867 2004.48 775.2 2010.48 771.867 2017.54C768.533 2024.48 765.867 2030.48 765.867 2030.74C765.867 2031.14 763.2 2037.01 759.867 2044.08C756.533 2051.01 753.867 2057.01 753.867 2057.41C753.867 2058.21 749.2 2068.61 740.4 2086.88C736.8 2094.48 733.867 2101.01 733.867 2101.41C733.867 2101.94 732.667 2105.14 731.067 2108.48C729.467 2111.81 727.467 2116.34 726.533 2118.61C723.6 2125.54 716.533 2141.01 713.733 2146.88C712.133 2149.94 710.933 2152.88 710.933 2153.54C710.933 2154.08 709.6 2157.28 707.867 2160.61C703.333 2169.54 697.867 2181.41 697.867 2182.34C697.867 2183.14 691.067 2198.08 684.267 2212.61C682.667 2215.94 680.133 2221.68 678.533 2225.41L675.733 2232.21L685.067 2236.48C690.267 2238.88 696.4 2241.68 698.533 2242.61C716.267 2250.34 722.933 2253.14 735.2 2257.94C742.933 2261.01 751.867 2264.61 755.067 2266.08C758.267 2267.54 761.067 2268.61 761.2 2268.34C761.467 2268.08 763.6 2264.34 765.867 2259.94C768.267 2255.54 770.8 2251.14 771.6 2250.21C772.267 2249.28 777.067 2241.28 782.133 2232.21C787.333 2223.28 792.533 2214.08 793.867 2211.94C795.067 2209.68 800.533 2200.48 805.867 2191.28C811.067 2182.08 816.667 2172.61 818 2170.21C819.333 2167.94 821.6 2163.94 822.933 2161.54C826.267 2155.68 833.733 2142.88 837.867 2136.08C844 2125.68 853.2 2109.94 855.2 2106.21C858.533 2100.34 863.333 2091.94 876.533 2069.28C883.333 2057.54 890.133 2045.81 891.6 2043.28C893.067 2040.74 895.333 2036.74 896.667 2034.61C898 2032.34 900.8 2027.54 902.933 2023.94C905.067 2020.21 908.133 2014.88 909.867 2011.94C911.467 2009.01 914.667 2003.54 916.8 1999.94C922.8 1989.54 931.6 1974.21 934.533 1969.41C936 1966.88 939.733 1960.34 942.8 1954.74C946 1949.28 955.867 1932.21 964.667 1917.01C973.6 1901.81 982.4 1886.61 984.267 1883.28C986.133 1879.94 990.267 1872.74 993.6 1867.28C996.933 1861.81 1001.47 1853.94 1003.6 1849.94C1005.87 1845.94 1010.13 1838.34 1013.2 1833.28C1018.8 1823.81 1023.47 1815.68 1037.2 1791.94C1041.47 1784.61 1045.87 1777.14 1047.07 1775.28C1048.27 1773.41 1051.33 1768.21 1053.87 1763.68C1060.27 1752.21 1080.53 1717.28 1089.2 1702.61C1093.07 1695.94 1098.27 1687.01 1100.53 1682.61C1102.93 1678.21 1105.6 1673.68 1106.4 1672.61C1107.33 1671.54 1109.73 1667.54 1111.87 1663.94C1113.87 1660.21 1116.93 1654.88 1118.53 1651.81L1121.73 1646.48L1110.4 1621.14C1104.13 1607.28 1098 1593.54 1096.67 1590.61C1092.53 1581.81 1033.6 1450.88 1031.87 1446.61L1030.13 1442.61L1026.93 1449.94Z" fill="#E31F26"/>
<path d="M1151.6 1720.88C1150.93 1722.61 1148.67 1727.28 1146.8 1731.28C1144.8 1735.28 1143.2 1739.01 1143.2 1739.54C1143.2 1740.08 1140.27 1746.74 1136.53 1754.48C1132.93 1762.21 1129.87 1768.74 1129.87 1769.14C1129.87 1769.54 1127.73 1774.48 1125.07 1780.21C1122.4 1785.94 1118.53 1794.48 1116.27 1799.28C1114.13 1804.08 1111.07 1810.61 1109.6 1813.94C1108.13 1817.28 1105.6 1822.88 1103.87 1826.61C1102.13 1830.21 1099.2 1837.14 1097.07 1841.94C1093.87 1849.68 1086.4 1866.08 1079.33 1881.28C1078 1884.21 1075.6 1889.28 1074.13 1892.61C1060.27 1923.81 1054.67 1936.21 1053.87 1937.28C1053.33 1937.94 1052.4 1940.08 1051.87 1941.94C1051.33 1943.81 1048.27 1951.01 1044.93 1957.94C1041.73 1964.88 1038.13 1973.01 1036.8 1975.94C1034.13 1981.94 1030.8 1989.14 1024.67 2002.21C1022.4 2007.14 1020.53 2011.41 1020.53 2011.81C1020.53 2012.21 1018.27 2017.54 1015.33 2023.54C1007.87 2039.68 1004.53 2047.14 1004.67 2047.94C1004.67 2048.34 1003.2 2051.54 1001.47 2055.01C999.6 2058.48 996.667 2064.61 994.8 2068.61C993.067 2072.61 990.267 2078.61 988.8 2081.94C987.333 2085.28 984.8 2090.88 983.2 2094.61C981.6 2098.21 978.533 2104.88 976.4 2109.14C974.267 2113.54 972.533 2117.54 972.533 2118.08C972.533 2118.61 969.733 2125.01 966.4 2132.21C959.867 2146.34 955.2 2156.48 950.933 2165.94C949.467 2169.28 946.933 2174.88 945.333 2178.61C943.6 2182.21 941.067 2187.94 939.6 2191.28C938 2194.61 935.467 2200.21 933.867 2203.94C932.133 2207.54 929.333 2213.94 927.467 2217.94C925.733 2221.94 922.667 2228.61 920.933 2232.61C919.067 2236.61 916.533 2242.34 915.2 2245.28C913.867 2248.21 911.6 2253.28 910.133 2256.61C899.733 2280.08 894 2292.61 890.267 2299.81C886.533 2307.28 886.667 2307.41 897.6 2309.94C901.733 2310.88 911.333 2313.01 918.667 2314.74C926.133 2316.48 933.467 2317.94 934.8 2317.94C936.267 2317.94 942 2319.14 947.6 2320.48C953.2 2321.94 960.533 2323.41 964.133 2323.81C967.6 2324.34 977.2 2325.81 985.2 2327.14C1004.4 2330.61 1038.67 2335.14 1051.2 2336.08C1056.67 2336.48 1067.2 2337.28 1074.53 2337.94C1114.67 2341.68 1130.53 2342.21 1185.2 2341.54C1222.93 2341.14 1248.67 2340.21 1260.53 2338.88C1270.4 2337.68 1284 2336.48 1290.53 2336.08C1297.2 2335.68 1310.67 2334.08 1320.53 2332.61C1330.4 2331.28 1342.8 2329.41 1347.87 2328.74C1363.87 2326.48 1387.47 2322.21 1397.07 2319.94C1402.13 2318.74 1408.13 2317.68 1410.4 2317.41C1415.2 2316.88 1421.87 2315.28 1421.87 2314.48C1421.87 2313.81 1407.73 2281.94 1402.13 2269.94C1399.87 2265.14 1392.93 2249.54 1386.53 2235.28C1380.13 2221.01 1373.33 2205.94 1371.47 2201.94C1366 2189.81 1344.8 2142.61 1336.27 2123.28C1331.87 2113.41 1325.87 2100.34 1323.07 2094.21C1320.27 2088.08 1317.87 2082.74 1317.87 2082.34C1317.87 2081.94 1316.4 2078.48 1314.53 2074.74C1310.67 2066.61 1307.87 2060.48 1289.33 2019.41C1281.6 2002.21 1275.2 1987.94 1275.2 1987.68C1275.2 1987.41 1272.27 1980.88 1268.53 1973.14C1264.93 1965.41 1261.87 1958.74 1261.87 1958.21C1261.87 1957.68 1260.67 1954.88 1259.33 1951.94C1257.87 1949.01 1255.33 1943.28 1253.47 1939.28C1251.6 1935.28 1247.6 1926.74 1244.67 1920.21C1241.6 1913.81 1239.2 1908.21 1239.2 1907.68C1239.2 1907.28 1237.73 1903.81 1236 1900.08C1232.27 1892.34 1227.47 1881.68 1223.2 1871.94C1221.6 1868.21 1218.8 1862.21 1217.07 1858.34C1215.33 1854.61 1213.87 1851.14 1213.87 1850.61C1213.87 1850.21 1210 1841.68 1205.2 1831.81C1200.4 1821.81 1196.53 1813.41 1196.53 1813.01C1196.53 1812.61 1195.33 1809.81 1193.87 1806.74C1192.53 1803.68 1188 1793.81 1184 1784.61C1180 1775.41 1175.87 1766.08 1174.8 1763.94C1172.93 1760.08 1168.13 1749.81 1163.2 1738.61C1161.87 1735.68 1159.33 1729.81 1157.47 1725.54C1155.6 1721.41 1153.73 1717.94 1153.47 1717.94C1153.2 1717.94 1152.4 1719.28 1151.6 1720.88Z" fill="#E31F26"/>
</svg>
