<?xml version="1.0" standalone="no"?>
<!DOCTYPE svg PUBLIC "-//W3C//DTD SVG 20010904//EN"
 "http://www.w3.org/TR/2001/REC-SVG-20010904/DTD/svg10.dtd">
<svg version="1.0" xmlns="http://www.w3.org/2000/svg"
 width="531.887921pt" height="333.262561pt" viewBox="0 0 531.887921 333.262561"
 preserveAspectRatio="xMidYMid meet">
<metadata>
Created by potrace 1.12, written by Peter Selinger 2001-2015
</metadata>
<g transform="translate(-160.071592,546.487537) scale(0.100000,-0.100000)"
fill="#000000" stroke="none">
<path d="M3630 5454 c-30 -8 -89 -31 -130 -52 -87 -43 -120 -83 -120 -145 0
-55 48 -99 136 -127 167 -51 348 -6 330 83 -15 76 -74 81 -146 13 -40 -37 -56
-46 -85 -46 -67 0 -125 47 -125 101 0 33 61 91 116 110 55 20 223 17 304 -4
223 -59 338 -208 227 -291 -66 -49 -164 -67 -487 -91 -408 -30 -537 -69 -576
-172 -14 -36 -15 -48 -4 -73 29 -70 111 -95 355 -109 185 -11 252 -27 284 -67
30 -38 11 -76 -65 -136 -35 -27 -64 -53 -64 -57 0 -4 16 -13 36 -20 90 -32
153 -131 162 -253 6 -86 -11 -146 -54 -197 -50 -58 -44 -77 15 -46 36 18 106
97 134 150 30 56 29 145 -1 206 -12 26 -49 73 -82 105 -33 32 -60 65 -60 72 0
7 10 26 21 41 42 57 42 162 1 203 -18 18 -42 21 -237 29 -242 9 -311 22 -344
65 -32 40 -28 90 10 125 56 52 168 73 477 89 394 20 559 63 598 156 20 48 11
83 -35 136 -53 60 -164 120 -306 167 -146 48 -211 56 -285 35z"/>
<path d="M2202 4603 c-213 -502 -390 -872 -458 -954 l-44 -54 62 -3 c35 -2 88
0 118 4 46 5 52 8 34 16 -24 11 -44 47 -44 78 0 39 43 149 67 172 24 22 32 23
218 26 l194 3 27 -83 c14 -46 28 -110 30 -143 2 -53 5 -61 26 -66 36 -11 316
-10 323 0 3 5 -5 21 -18 35 -33 35 -161 297 -312 636 -141 317 -173 380 -190
380 -7 0 -21 -21 -33 -47z m-2 -408 c44 -99 90 -218 90 -231 0 -19 -287 -40
-305 -22 -4 4 1 31 10 60 26 80 139 328 146 320 3 -4 30 -61 59 -127z"/>
<path d="M3071 4464 c-17 -14 -31 -30 -31 -35 0 -15 82 -69 105 -69 30 0 55
30 55 67 0 63 -73 84 -129 37z"/>
<path d="M2852 4459 c-53 -27 -59 -39 -35 -75 16 -25 18 -52 18 -254 -1 -186
-4 -233 -17 -270 -13 -34 -14 -46 -5 -52 14 -9 142 -10 174 -2 20 6 21 8 8 28
-25 38 -37 160 -32 329 3 89 8 174 12 188 5 21 3 27 -14 32 -19 4 -20 10 -15
51 7 45 6 46 -22 46 -16 0 -49 -10 -72 -21z"/>
<path d="M4068 4459 c-50 -26 -60 -47 -45 -95 18 -57 17 -491 -1 -522 -8 -13
-11 -27 -7 -30 3 -4 39 -8 80 -10 l73 -4 -4 198 c-3 110 -7 263 -10 342 -6
137 -7 142 -28 142 -11 -1 -38 -10 -58 -21z"/>
<path d="M4313 4455 c-17 -7 -36 -23 -43 -34 -12 -24 -12 -24 62 -21 105 3
118 -34 118 -350 0 -162 3 -229 12 -238 7 -7 31 -12 54 -12 70 0 74 13 74 225
0 228 9 291 48 326 16 15 50 34 76 44 44 17 49 17 82 1 59 -28 66 -58 72 -325
6 -274 5 -271 98 -271 l55 0 -6 88 c-33 487 -43 536 -120 568 -79 33 -185 4
-267 -71 -27 -26 -53 -43 -57 -39 -4 5 -20 26 -35 48 -49 67 -148 94 -223 61z"/>
<path d="M3425 4366 c-72 -31 -127 -102 -160 -203 -16 -49 -16 -55 0 -104 25
-74 119 -169 195 -197 116 -42 144 -27 58 30 -31 21 -65 50 -77 66 -43 61 -64
210 -41 294 6 20 27 51 49 71 21 19 41 40 45 46 10 15 -31 14 -69 -3z"/>
<path d="M5365 4105 c-5 -2 -28 -9 -51 -14 -97 -25 -170 -103 -146 -156 24
-53 92 -19 112 57 15 53 51 78 115 78 94 0 115 -49 115 -272 0 -189 -10 -240
-57 -275 -48 -37 -141 -45 -171 -15 -60 60 -25 168 82 252 36 28 66 56 66 61
0 35 -138 -40 -221 -120 -67 -65 -69 -67 -69 -116 0 -95 71 -175 154 -175 43
0 107 25 156 60 29 21 60 27 60 11 0 -5 13 -23 29 -40 35 -37 68 -40 122 -9
44 25 47 33 19 63 -25 27 -37 94 -50 295 -5 85 -15 172 -20 192 -14 49 -53 94
-93 107 -37 11 -137 22 -152 16z"/>
<path d="M2666 3430 c-27 -5 -53 -13 -58 -18 -14 -14 -1 -32 21 -32 9 0 26 -6
36 -14 15 -11 20 -33 26 -135 7 -113 17 -151 40 -151 20 0 41 68 49 160 4 54
11 104 15 110 4 7 23 18 41 26 19 8 34 20 34 28 0 23 -129 39 -204 26z"/>
<path d="M3051 3429 c-60 -13 -111 -63 -135 -134 -35 -100 72 -238 171 -222
77 13 165 91 149 133 -9 25 -33 15 -66 -26 -28 -36 -36 -40 -76 -40 -30 0 -50
6 -63 19 -22 22 -36 97 -27 143 14 71 61 84 156 44 58 -26 70 -25 70 3 0 49
-103 96 -179 80z"/>
<path d="M3557 3433 c-3 -5 -10 -28 -17 -53 -16 -59 -45 -90 -85 -90 -38 0
-55 18 -79 82 -18 48 -41 67 -60 48 -13 -13 -20 -219 -9 -279 16 -86 65 -78
82 13 11 57 21 66 82 66 53 0 69 -13 69 -56 0 -42 20 -96 33 -91 6 2 14 14 18
28 11 39 10 250 -1 291 -11 38 -25 55 -33 41z"/>
<path d="M6655 3430 c-273 -18 -496 -50 -700 -101 -156 -40 -534 -166 -805
-269 -391 -149 -378 -146 -425 -106 -15 13 -40 27 -54 30 -14 4 -143 11 -286
16 -310 12 -2486 -5 -2610 -20 -108 -13 -163 -35 -171 -66 -11 -42 3 -79 78
-220 85 -159 153 -240 286 -337 107 -79 179 -143 171 -151 -4 -4 -60 -11 -125
-16 -107 -9 -147 -20 -132 -35 18 -19 554 -26 1498 -21 992 5 1130 8 1130 26
0 16 -38 22 -177 27 -79 3 -143 9 -143 12 0 21 102 129 145 154 103 60 335
281 335 318 0 6 14 24 30 39 23 21 30 37 30 64 0 46 26 74 106 114 179 90 334
123 1074 228 319 45 616 105 738 150 53 20 131 47 172 60 41 14 80 30 87 36
18 15 16 55 -3 62 -31 12 -121 14 -249 6z"/>
<path d="M2096 3406 c-12 -47 -17 -192 -9 -250 12 -92 37 -84 59 19 14 65 41
60 128 -24 40 -39 78 -71 86 -71 21 0 4 53 -40 121 -22 34 -40 72 -40 85 0 12
16 41 35 64 92 110 -9 86 -120 -29 -21 -22 -43 -41 -47 -41 -4 0 -8 27 -8 59
0 33 -3 66 -6 75 -9 24 -31 19 -38 -8z"/>
<path d="M2461 3393 c-6 -21 -11 -83 -11 -138 0 -147 22 -206 60 -160 18 22
27 124 19 207 -14 123 -47 167 -68 91z"/>
<path d="M3749 3423 l-36 -4 -7 -61 c-3 -34 -6 -100 -6 -149 0 -100 7 -112 73
-130 52 -14 172 -8 189 9 21 22 -18 42 -81 42 -95 0 -135 38 -94 89 15 18 34
25 91 31 40 4 76 10 78 13 11 11 -37 27 -96 34 -68 7 -113 33 -94 53 7 7 46
18 89 25 76 13 110 29 99 46 -5 9 -131 10 -205 2z"/>
<path d="M4075 3413 c-11 -30 -18 -186 -11 -244 14 -112 43 -104 58 18 6 43
12 84 14 92 3 8 26 -21 53 -65 55 -88 103 -139 123 -131 24 9 39 78 44 202 6
129 -1 159 -33 139 -20 -12 -49 -94 -58 -167 l-7 -49 -36 59 c-61 99 -113 163
-133 163 -4 0 -10 -8 -14 -17z"/>
</g>
</svg>
