<?xml version="1.0" standalone="no"?>
<!DOCTYPE svg PUBLIC "-//W3C//DTD SVG 20010904//EN"
 "http://www.w3.org/TR/2001/REC-SVG-20010904/DTD/svg10.dtd">
<svg version="1.0" xmlns="http://www.w3.org/2000/svg"
 width="254.466387pt" height="42.645729pt" viewBox="0 0 254.466387 42.645729"
 preserveAspectRatio="xMidYMid meet">
<metadata>
Created by potrace 1.12, written by Peter Selinger 2001-2015
</metadata>
<g transform="translate(-7.275680,61.645729) scale(0.100000,-0.100000)"
fill="#000000" stroke="none">
<path d="M228 611 c-119 -39 -183 -161 -144 -279 9 -27 25 -57 34 -66 17 -14
21 -11 57 52 101 176 121 188 45 27 -27 -59 -50 -113 -50 -119 0 -6 25 31 55
82 30 51 55 97 55 102 0 26 20 1 74 -91 32 -55 60 -98 62 -96 3 2 -18 53 -46
112 -28 60 -49 112 -48 117 2 6 32 -39 67 -98 l64 -107 23 28 c29 37 48 115
39 163 -18 101 -98 171 -202 178 -32 2 -70 -1 -85 -5z"/>
<path d="M731 548 c-5 -13 -34 -86 -65 -163 -31 -76 -56 -142 -56 -145 0 -3
23 -3 51 -1 42 2 52 7 59 27 9 22 15 24 75 24 61 0 65 -2 71 -25 6 -23 11 -25
60 -25 30 0 54 1 54 3 0 1 -29 74 -64 162 l-64 160 -56 3 c-51 3 -57 1 -65
-20z m96 -159 c5 -28 4 -29 -36 -29 -22 0 -41 2 -41 4 0 4 27 82 36 106 7 17
31 -30 41 -81z"/>
<path d="M1030 406 l0 -166 50 0 50 0 0 68 1 67 27 -30 c15 -17 41 -47 58 -68
30 -37 33 -38 87 -35 l56 3 -49 65 c-27 36 -50 68 -50 71 0 4 11 10 25 13 27
7 55 52 55 90 0 14 -11 38 -24 53 -24 28 -26 28 -155 32 l-131 3 0 -166z m194
88 c9 -8 16 -19 16 -24 0 -21 -34 -40 -71 -40 -39 0 -39 0 -39 40 0 40 0 40
39 40 23 0 46 -7 55 -16z"/>
<path d="M1470 552 c-75 -37 -105 -180 -54 -249 42 -56 69 -68 154 -68 93 0
122 16 158 86 43 81 12 198 -62 233 -46 22 -151 21 -196 -2z m149 -71 c44 -44
31 -157 -20 -175 -65 -23 -115 29 -106 111 2 24 13 53 22 63 24 26 79 26 104
1z"/>
<path d="M1810 405 l0 -165 43 0 42 0 -3 106 c-3 98 2 144 13 132 3 -3 14 -40
26 -84 44 -171 35 -154 78 -154 l38 0 23 88 c38 145 41 154 47 148 3 -3 5 -57
4 -121 l-2 -115 40 0 41 0 0 165 0 166 -67 -3 -67 -3 -25 -97 c-14 -54 -29
-98 -32 -98 -4 0 -18 44 -31 98 l-24 97 -72 3 -72 3 0 -166z"/>
<path d="M2364 533 c-9 -21 -29 -72 -44 -113 -15 -41 -37 -99 -49 -127 l-21
-53 50 0 c45 0 52 3 60 25 9 23 14 25 75 25 61 0 65 -2 71 -25 6 -23 11 -25
61 -25 40 0 54 3 50 13 -3 6 -32 80 -64 162 l-59 150 -57 3 -58 3 -15 -38z
m94 -109 c18 -61 16 -64 -28 -64 -22 0 -40 2 -40 4 0 3 21 65 35 105 8 20 19
4 33 -45z"/>
<path d="M287 384 c-10 -11 -8 -44 2 -44 6 0 13 4 16 10 8 12 -9 43 -18 34z"/>
<path d="M307 327 c-5 -13 23 -72 60 -126 2 -2 6 -2 9 1 3 3 -10 36 -29 73
-24 48 -36 63 -40 52z"/>
<path d="M237 275 c-15 -31 -27 -61 -27 -68 1 -15 69 94 70 111 0 27 -17 9
-43 -43z"/>
<path d="M270 243 c-8 -21 -16 -41 -18 -45 -2 -5 17 -8 42 -8 l46 0 -22 45
c-12 25 -25 45 -28 45 -3 0 -12 -17 -20 -37z"/>
</g>
</svg>
