<?xml version="1.0" standalone="no"?>
<!DOCTYPE svg PUBLIC "-//W3C//DTD SVG 20010904//EN"
 "http://www.w3.org/TR/2001/REC-SVG-20010904/DTD/svg10.dtd">
<svg version="1.0" xmlns="http://www.w3.org/2000/svg"
 width="565.966382pt" height="171.596520pt" viewBox="0 0 565.966382 171.596520"
 preserveAspectRatio="xMidYMid meet">
<metadata>
Created by potrace 1.12, written by Peter Selinger 2001-2015
</metadata>
<g transform="translate(-132.500000,490.794598) scale(0.100000,-0.100000)"
fill="#000000" stroke="none">
<path d="M1848 4899 c-183 -24 -376 -176 -475 -375 l-48 -97 0 -197 0 -196 38
-76 c48 -98 124 -200 146 -196 8 2 61 84 118 183 144 253 239 417 257 440 14
18 15 16 2 -20 -7 -22 -41 -101 -74 -175 -126 -282 -175 -397 -193 -447 -35
-98 -20 -111 34 -30 39 58 234 397 282 489 17 32 33 58 37 58 4 0 20 -19 34
-42 15 -24 35 -52 45 -63 9 -11 24 -38 31 -60 16 -47 206 -370 242 -412 13
-15 28 -24 32 -20 11 10 -34 138 -98 282 -118 262 -189 428 -185 432 5 5 5 5
182 -297 152 -259 192 -320 211 -320 32 0 117 137 161 263 34 96 43 271 19
367 -21 86 -85 212 -138 277 -102 122 -262 219 -390 234 -89 10 -181 9 -270
-2z"/>
<path d="M4764 4600 c-105 -15 -186 -76 -236 -178 -32 -65 -33 -70 -33 -192 0
-122 1 -127 33 -193 60 -121 154 -171 327 -171 122 -1 184 18 250 76 94 83
131 178 122 317 -11 196 -103 304 -285 337 -84 15 -103 15 -178 4z m177 -196
c32 -29 49 -68 55 -131 9 -82 -11 -170 -46 -205 -25 -25 -36 -28 -90 -28 -57
0 -65 3 -95 33 -55 55 -71 163 -37 262 14 42 24 54 62 73 53 27 119 25 151 -4z"/>
<path d="M3192 4592 c-12 -2 -29 -13 -37 -25 -19 -30 -255 -664 -255 -686 0
-17 204 -15 218 2 6 7 14 32 18 55 l7 42 137 0 137 0 7 -42 c4 -23 12 -48 18
-55 15 -19 207 -18 214 0 3 8 -10 56 -27 108 -39 115 -215 589 -220 593 -6 5
-192 12 -217 8z m132 -323 c17 -66 21 -98 14 -106 -6 -8 -33 -13 -64 -13 -51
0 -54 1 -54 25 0 14 14 68 31 122 36 111 37 111 73 -28z"/>
<path d="M3760 4235 l0 -365 99 0 99 0 4 118 c2 64 8 123 12 130 11 18 37 -7
144 -140 l87 -108 117 0 c92 0 118 3 118 13 0 8 -43 73 -95 146 -91 128 -112
171 -80 171 24 0 82 58 105 106 18 36 21 58 18 114 -8 151 -80 179 -470 180
l-158 0 0 -365z m365 201 c68 -29 52 -105 -26 -126 -22 -6 -59 -10 -82 -8 -40
3 -42 5 -51 45 -10 51 -2 90 22 96 37 10 104 6 137 -7z"/>
<path d="M5350 4234 l0 -366 80 4 c58 2 84 7 90 18 5 8 10 51 10 96 0 95 12
355 16 351 1 -1 23 -83 49 -182 25 -99 53 -204 61 -232 l15 -53 74 0 c72 0 75
1 89 28 8 16 35 114 61 218 25 104 49 198 54 209 5 12 11 -72 15 -210 4 -126
10 -232 13 -235 2 -3 43 -7 89 -9 l84 -3 0 366 0 366 -144 0 c-129 0 -145 -2
-150 -17 -3 -10 -21 -84 -40 -164 -19 -81 -41 -162 -49 -180 -13 -33 -14 -33
-25 -13 -10 18 -33 101 -93 337 l-10 37 -144 0 -145 0 0 -366z"/>
<path d="M6497 4588 c-20 -16 -257 -665 -257 -705 0 -10 23 -13 93 -13 50 0
97 4 104 8 7 4 19 24 28 44 8 21 24 42 34 48 11 5 65 10 120 10 88 0 104 -3
121 -20 11 -11 20 -27 20 -35 0 -8 9 -24 20 -35 17 -17 33 -20 103 -20 113 0
114 2 87 86 -19 59 -205 575 -225 627 -6 15 -22 17 -119 17 -74 0 -118 -4
-129 -12z m162 -328 c17 -52 28 -97 25 -102 -7 -11 -131 -10 -138 0 -12 19 62
218 75 205 5 -5 22 -51 38 -103z"/>
<path d="M1952 4176 c-26 -68 -28 -113 -6 -144 21 -31 41 -28 64 11 26 42 25
61 -8 131 l-28 59 -22 -57z"/>
<path d="M1846 3938 c-29 -62 -73 -161 -97 -220 -35 -88 -41 -110 -30 -120 10
-11 18 -7 40 20 37 44 167 278 179 322 10 38 -5 101 -26 108 -8 2 -34 -42 -66
-110z"/>
<path d="M2022 4015 c-27 -59 -9 -110 105 -302 60 -101 85 -128 108 -120 13 6
12 14 -7 64 -57 153 -169 383 -187 383 -4 0 -13 -11 -19 -25z"/>
<path d="M1922 3780 c-60 -126 -89 -206 -78 -217 9 -10 217 -17 250 -9 24 6
25 7 12 49 -19 63 -96 235 -117 260 -18 22 -18 22 -67 -83z"/>
<path d="M4265 3728 c-3 -8 -4 -106 -3 -218 l3 -205 45 0 45 0 0 215 0 215
-43 3 c-28 2 -44 -1 -47 -10z"/>
<path d="M2900 3510 l0 -213 116 7 c154 9 186 23 234 98 21 32 40 55 43 51 2
-4 9 -24 16 -43 22 -68 92 -120 163 -120 39 0 112 39 116 62 5 28 -31 40 -82
26 -31 -8 -54 -9 -73 -2 -64 22 -18 41 106 43 l74 1 -6 57 c-7 65 -29 100 -78
125 -45 24 -101 23 -150 -3 -31 -15 -46 -33 -65 -72 l-24 -52 0 35 c-1 75 -67
164 -140 189 -19 7 -83 15 -142 18 l-108 6 0 -213z m225 100 c47 -29 65 -85
44 -143 -18 -52 -51 -76 -116 -84 -50 -5 -52 -5 -59 21 -11 44 0 202 16 221
18 21 67 15 115 -15z m371 -85 c16 -13 17 -16 4 -25 -24 -16 -80 -12 -87 6
-12 32 48 46 83 19z"/>
<path d="M3614 3606 c-7 -18 56 -191 94 -261 33 -61 68 -71 100 -30 24 31 101
222 109 271 6 33 5 34 -30 34 -43 0 -56 -16 -82 -103 -28 -89 -38 -88 -76 13
-11 30 -28 63 -36 73 -19 21 -71 23 -79 3z"/>
<path d="M4005 3611 c-28 -13 -72 -61 -84 -94 -30 -78 5 -167 79 -204 54 -28
101 -29 158 -3 46 21 52 38 22 65 -17 15 -24 16 -46 7 -35 -17 -89 -15 -104 3
-7 9 -11 18 -8 21 3 2 47 8 99 12 l94 7 3 39 c4 48 -11 85 -49 122 -24 23 -39
28 -86 31 -32 1 -67 -1 -78 -6z m116 -87 c10 -13 10 -17 -2 -25 -19 -12 -80
-11 -99 1 -13 9 -12 12 4 25 26 20 80 19 97 -1z"/>
<path d="M4463 3593 c-146 -95 -88 -296 86 -296 83 0 128 28 166 102 35 70 -2
168 -78 205 -54 25 -125 21 -174 -11z m146 -79 c30 -38 28 -87 -5 -113 -72
-56 -164 14 -122 92 28 54 93 64 127 21z"/>
<path d="M4750 3434 c0 -104 3 -199 6 -212 7 -26 48 -40 69 -22 8 6 15 34 17
63 3 49 4 52 28 49 115 -15 126 -14 157 12 17 14 38 45 47 68 l17 41 34 -50
c39 -58 90 -87 155 -87 60 0 112 28 108 57 -3 20 -9 22 -68 22 -120 0 -151 30
-42 40 37 3 82 8 101 11 l34 5 -6 54 c-3 30 -12 64 -21 76 -60 86 -201 77
-265 -17 -13 -18 -26 -34 -30 -34 -3 0 -13 15 -21 32 -29 62 -57 73 -196 77
l-124 3 0 -188z m548 93 c28 -29 20 -37 -34 -37 -52 0 -65 17 -34 42 29 24 42
23 68 -5z m-322 -21 c11 -23 14 -45 10 -70 -8 -42 -16 -48 -63 -49 -44 -1 -73
30 -73 79 0 45 29 74 75 74 30 0 38 -5 51 -34z"/>
<path d="M5446 3604 c-9 -22 -7 -267 2 -280 12 -17 42 -25 61 -14 13 6 20 26
24 70 13 119 87 194 116 117 12 -31 31 -45 98 -72 32 -13 58 -30 58 -37 0 -19
-41 -22 -92 -7 -38 10 -47 10 -60 -3 -23 -24 -7 -54 38 -72 82 -33 162 -10
189 54 20 49 -10 96 -84 133 -31 15 -56 32 -56 37 0 6 24 10 53 10 31 0 61 6
73 14 19 15 19 15 -3 37 -17 17 -37 24 -80 27 -49 3 -63 0 -95 -21 l-36 -25
-6 24 c-7 27 -30 31 -71 12 -21 -9 -31 -9 -46 0 -27 17 -76 15 -83 -4z"/>
</g>
</svg>
