<?xml version="1.0" standalone="no"?>
<!DOCTYPE svg PUBLIC "-//W3C//DTD SVG 20010904//EN"
 "http://www.w3.org/TR/2001/REC-SVG-20010904/DTD/svg10.dtd">
<svg version="1.0" xmlns="http://www.w3.org/2000/svg"
 width="645.323441pt" height="161.321464pt" viewBox="0 0 645.323441 161.321464"
 preserveAspectRatio="xMidYMid meet">
<metadata>
Created by potrace 1.12, written by Peter Selinger 2001-2015
</metadata>
<g transform="translate(-77.176559,480.821464) scale(0.100000,-0.100000)"
fill="#000000" stroke="none">
<path d="M775 4798 c-3 -7 -4 -371 -3 -808 l3 -795 3225 0 3225 0 0 805 0 805
-3223 3 c-2573 2 -3224 0 -3227 -10z m1119 -403 c16 -41 -37 -95 -73 -75 -26
13 -51 50 -51 72 0 15 9 18 59 18 43 0 60 -4 65 -15z m-209 -76 c11 -17 0 -20
-21 -4 -17 13 -17 14 -2 15 9 0 20 -5 23 -11z m-57 -75 c37 -10 25 -21 -33
-29 -45 -5 -55 -10 -55 -25 0 -14 10 -21 35 -26 41 -7 42 -27 2 -32 -14 -2
-31 -10 -37 -17 -10 -12 -7 -17 15 -25 14 -5 37 -10 50 -10 32 0 56 -10 49
-21 -3 -5 -39 -9 -80 -9 l-74 0 0 100 0 100 53 0 c28 0 62 -3 75 -6z m181 -78
c35 -85 39 -105 15 -86 -19 17 -101 17 -116 2 -14 -14 -28 -15 -28 -2 0 5 9
34 20 64 23 59 57 109 70 101 4 -3 22 -38 39 -79z m179 67 c2 -9 -8 -13 -30
-13 -18 0 -39 -4 -47 -9 -20 -13 -4 -31 27 -31 63 0 96 -62 50 -94 -28 -20
-88 -21 -114 -2 -23 17 -11 24 51 28 48 4 54 27 10 41 -92 29 -85 100 9 94 22
-1 41 -8 44 -14z m190 11 c29 -8 29 -24 -1 -24 -35 0 -47 -19 -48 -74 -1 -64
-12 -106 -23 -88 -4 6 -10 44 -13 83 -6 67 -7 70 -34 76 -16 3 -29 9 -29 14 0
14 107 24 148 13z m4640 -96 c-6 -18 -28 -21 -28 -4 0 9 7 16 16 16 9 0 14 -5
12 -12z m-3647 -38 l24 -19 -36 -1 c-19 0 -44 -7 -55 -15 -16 -13 -17 -16 -4
-25 8 -6 26 -13 40 -17 75 -19 93 -69 38 -103 -40 -24 -69 -25 -108 -5 -33 17
-43 53 -12 40 68 -29 70 -29 96 -12 14 10 26 22 26 27 0 5 -26 16 -57 25 -68
19 -87 38 -71 69 27 54 79 70 119 36z m2314 5 c0 -5 -24 -12 -54 -15 -94 -9
-96 -66 -3 -72 60 -4 61 -22 2 -26 -54 -4 -72 -17 -68 -51 2 -21 9 -27 33 -29
116 -10 122 -32 9 -32 l-74 0 0 120 0 121 78 -3 c43 -2 77 -7 77 -13z m-258
-11 c29 -6 38 -39 22 -86 -13 -39 -12 -44 16 -110 14 -35 -15 -17 -45 28 -39
56 -61 55 -73 -4 -4 -23 -12 -42 -16 -42 -17 0 -30 208 -14 223 6 6 56 2 110
-9z m994 6 c35 -19 19 -30 -45 -30 -56 0 -67 -3 -80 -22 -52 -73 32 -165 112
-124 36 19 42 19 42 6 0 -23 -45 -50 -85 -50 -50 0 -79 20 -106 72 -26 50 -20
77 26 123 29 28 43 35 76 35 22 0 49 -5 60 -10z m-3437 -9 c8 -12 -28 -21 -82
-21 -41 0 -43 -1 -40 -27 3 -24 9 -29 46 -36 23 -4 42 -12 42 -17 0 -5 -19
-13 -42 -17 -37 -7 -43 -12 -43 -33 0 -21 5 -25 35 -28 128 -9 135 -32 10 -32
l-90 0 0 110 0 110 79 0 c44 0 82 -4 85 -9z m186 -74 c53 -110 53 -122 -1 -90
-27 16 -32 16 -81 0 -28 -9 -54 -14 -57 -12 -5 6 44 130 65 163 8 12 19 22 24
22 5 0 28 -37 50 -83z m453 68 c-1 -5 -17 -12 -35 -15 -32 -5 -33 -7 -35 -55
-4 -82 -14 -135 -24 -135 -5 0 -9 17 -9 38 0 67 -13 144 -24 147 -6 2 -24 6
-39 9 -15 4 -25 11 -22 17 9 13 191 7 188 -6z m203 -20 c7 -41 2 -171 -8 -181
-4 -3 -14 -4 -23 -1 -12 5 -15 24 -15 96 0 49 3 96 6 105 11 28 33 17 40 -19z
m95 12 c13 -13 46 -49 73 -81 55 -66 66 -63 66 21 0 58 8 86 21 77 5 -3 9 -50
9 -105 0 -133 -9 -136 -103 -41 -38 40 -71 72 -73 72 -2 0 -4 -31 -4 -70 0
-67 -14 -95 -24 -47 -18 87 -16 197 4 197 4 0 18 -10 31 -23z m386 8 c48 -34
54 -136 12 -181 -19 -21 -32 -24 -90 -24 l-67 0 -4 92 c-3 58 -9 93 -16 96 -7
2 -12 10 -12 18 0 20 147 20 177 -1z m113 -95 c0 -54 -4 -101 -9 -104 -15 -10
-21 21 -21 104 0 83 6 114 21 104 5 -3 9 -50 9 -104z m175 87 c24 -37 87 -188
81 -194 -3 -3 -20 2 -39 10 -29 14 -40 15 -93 2 -86 -21 -85 -21 -70 23 14 37
64 146 79 170 12 18 25 15 42 -11z m393 17 c41 -11 17 -29 -38 -29 -90 0 -77
-23 37 -65 35 -13 48 -38 39 -74 -14 -58 -166 -63 -166 -6 0 24 8 25 34 5 27
-20 59 -19 87 4 l23 18 -25 15 c-13 9 -40 19 -60 22 -20 4 -45 16 -55 27 -17
18 -17 23 -4 47 20 35 74 50 128 36z m260 -6 c-3 -7 -18 -14 -34 -16 -16 -2
-33 -7 -37 -11 -4 -4 -10 -46 -14 -92 -3 -46 -7 -86 -9 -88 -11 -12 -19 19
-24 97 -5 84 -6 87 -30 90 -39 5 -52 11 -45 22 10 16 198 13 193 -2z m632 5
c-76 -6 -90 -11 -90 -36 0 -33 11 -43 55 -55 l40 -10 -36 -1 c-42 -1 -62 -20
-57 -53 2 -17 10 -24 33 -26 118 -10 129 -32 15 -32 l-80 0 0 110 0 110 83 -2
c45 -1 62 -3 37 -5z m268 -5 c-3 -7 -18 -15 -34 -16 -16 -2 -32 -9 -36 -15 -4
-7 -8 -47 -8 -89 0 -73 -11 -106 -24 -72 -3 9 -6 46 -6 82 0 79 -5 89 -44 94
-16 1 -31 9 -34 16 -3 9 20 12 93 12 73 0 96 -3 93 -12z m481 -56 c31 -62 57
-139 49 -147 -3 -3 -19 2 -37 11 -36 18 -105 14 -140 -8 -35 -22 -36 1 -3 68
46 93 81 146 93 139 5 -4 22 -32 38 -63z m245 59 c8 -12 -18 -21 -59 -21 -18
0 -38 -7 -45 -15 -10 -12 -7 -16 16 -26 68 -27 73 -40 20 -52 -30 -8 -35 -13
-41 -48 -15 -90 -35 -38 -35 92 l0 79 69 0 c39 0 72 -4 75 -9z m196 -1 c0 -8
-29 -16 -90 -22 -19 -2 -25 -9 -25 -28 0 -22 5 -26 48 -32 78 -11 78 -25 0
-36 -43 -6 -48 -10 -48 -32 0 -21 5 -25 30 -28 107 -9 125 -32 25 -32 -92 0
-90 -3 -90 116 l0 104 75 0 c41 0 75 -4 75 -10z m-4710 -136 c29 -46 66 -141
58 -149 -2 -3 -18 1 -36 7 -23 9 -45 9 -84 1 -29 -6 -54 -9 -56 -8 -2 2 13 40
32 85 20 44 36 88 36 95 0 28 21 15 50 -31z m-661 -59 c1 -73 -8 -113 -20 -93
-10 16 -12 149 -2 174 6 16 7 16 14 -2 4 -10 8 -46 8 -79z m120 29 l61 -67 1
49 c1 58 12 94 23 76 11 -18 9 -173 -2 -184 -6 -6 -27 11 -57 46 -59 70 -77
73 -68 11 6 -45 -8 -63 -21 -29 -13 33 -19 164 -8 164 5 0 38 -30 71 -66z
m270 55 c39 -14 51 -35 51 -89 0 -51 -31 -86 -86 -96 -56 -10 -68 2 -76 82 -3
38 -9 79 -13 92 -7 21 -5 22 42 22 28 0 64 -5 82 -11z m121 -86 c0 -80 -8
-113 -21 -91 -10 15 -12 149 -3 173 13 32 24 -7 24 -82z m-330 -248 c0 -5 -15
-15 -33 -21 -28 -9 -32 -15 -32 -45 0 -26 5 -34 20 -37 55 -8 68 -13 57 -24
-13 -13 -88 -1 -107 19 -24 23 -18 62 15 94 21 21 38 29 55 27 14 -2 25 -7 25
-13z m130 -45 c16 -33 30 -64 30 -70 0 -6 -26 -10 -60 -10 -33 0 -60 3 -60 8
0 8 53 132 57 132 2 0 16 -27 33 -60z m144 54 c24 -9 19 -24 -6 -24 -13 0 -30
-5 -38 -10 -13 -9 -13 -11 0 -20 8 -5 20 -10 27 -10 6 0 -3 -15 -20 -33 -18
-18 -35 -31 -39 -29 -5 2 -8 25 -8 52 0 67 31 94 84 74z m96 -23 c-14 -4 -25
-13 -25 -21 0 -8 11 -17 25 -21 22 -6 23 -7 4 -8 -29 -1 -49 -25 -32 -38 7 -6
20 -13 28 -16 8 -3 0 -6 -17 -6 l-33 -1 0 60 0 60 38 -1 c32 -1 33 -2 12 -8z"/>
<path d="M1734 4159 c-8 -13 13 -29 39 -29 20 0 22 11 5 28 -15 15 -35 15 -44
1z"/>
<path d="M5156 4084 c-9 -8 -16 -26 -16 -40 0 -21 4 -24 40 -24 51 0 71 29 40
60 -24 24 -43 25 -64 4z"/>
<path d="M2901 4019 c-15 -45 -14 -49 14 -49 32 0 42 23 25 56 -18 32 -26 30
-39 -7z"/>
<path d="M3996 4064 c-3 -9 -6 -37 -6 -64 0 -70 6 -80 49 -80 48 0 61 10 70
52 10 41 -7 91 -34 102 -31 11 -73 6 -79 -10z"/>
<path d="M4348 4006 c-16 -35 -4 -56 32 -56 34 0 36 8 15 50 -19 36 -32 38
-47 6z"/>
<path d="M6360 4000 c-15 -37 -10 -45 25 -36 27 7 34 33 13 54 -18 18 -24 15
-38 -18z"/>
<path d="M2117 3909 c-24 -33 -21 -39 13 -39 33 0 38 15 17 45 -13 17 -15 17
-30 -6z"/>
<path d="M1819 3943 c-5 -15 -7 -44 -4 -65 6 -34 10 -38 35 -38 54 0 79 71 40
110 -29 29 -58 26 -71 -7z"/>
<path d="M1770 3579 c0 -18 2 -19 15 -9 8 7 15 16 15 21 0 5 -7 9 -15 9 -9 0
-15 -9 -15 -21z"/>
</g>
</svg>
