<?xml version="1.0" standalone="no"?>
<!DOCTYPE svg PUBLIC "-//W3C//DTD SVG 20010904//EN"
 "http://www.w3.org/TR/2001/REC-SVG-20010904/DTD/svg10.dtd">
<svg version="1.0" xmlns="http://www.w3.org/2000/svg"
 width="644.500000pt" height="210.006135pt" viewBox="0 0 644.500000 210.006135"
 preserveAspectRatio="xMidYMid meet">
<metadata>
Created by potrace 1.12, written by Peter Selinger 2001-2015
</metadata>
<g transform="translate(-93.000000,505.003067) scale(0.100000,-0.100000)"
fill="#000000" stroke="none">
<path d="M930 4000 l0 -1050 3223 2 3222 3 0 1045 0 1045 -3222 3 -3223 2 0
-1050z m1234 554 c21 -66 22 -64 -69 -93 -33 -10 -212 -67 -398 -126 -186 -59
-345 -104 -353 -101 -10 4 -14 22 -14 64 0 71 -30 55 285 152 127 40 289 91
360 115 72 24 139 44 151 44 16 1 24 -10 38 -55z m66 -424 l0 -60 -79 0 c-43
0 -93 -3 -110 -6 l-31 -6 0 -134 c0 -74 -4 -134 -9 -134 -5 0 -49 61 -97 135
l-89 135 -107 0 -108 0 0 -285 0 -285 -130 0 -130 0 0 350 0 350 445 0 445 0
0 -60z m891 -103 c28 -67 60 -132 72 -144 l20 -23 -45 0 c-44 0 -45 0 -59 48
l-15 47 -52 3 c-49 3 -53 1 -63 -25 -6 -15 -8 -38 -6 -50 4 -22 1 -23 -59 -23
l-63 0 -53 65 c-30 39 -59 64 -68 63 -22 -4 -25 -73 -5 -104 l15 -24 -51 0
c-45 0 -50 2 -43 18 13 27 17 248 4 272 -10 19 -8 20 68 20 65 0 84 -4 106
-21 33 -26 34 -64 1 -109 -13 -18 -21 -38 -18 -44 23 -38 89 -106 103 -106 13
0 30 32 66 123 26 67 55 132 63 145 18 29 15 33 82 -131z m387 141 c13 -13 17
-68 4 -68 -4 0 -13 9 -19 20 -19 30 -82 45 -127 30 -125 -41 -86 -261 46 -264
l43 -1 3 58 c2 37 -1 57 -8 57 -6 0 -8 5 -5 10 8 13 95 13 95 1 0 -6 -4 -13
-10 -16 -5 -3 -10 -30 -10 -59 0 -28 -5 -57 -12 -64 -17 -17 -151 -15 -191 2
-122 52 -123 212 -2 287 36 22 173 27 193 7z m582 -111 c26 -64 57 -132 69
-152 11 -20 21 -38 21 -41 0 -2 -17 -4 -38 -4 -37 0 -39 2 -53 48 l-15 47 -51
3 c-49 3 -51 2 -62 -29 -6 -18 -11 -40 -11 -50 0 -16 -8 -19 -60 -19 l-60 0
-51 65 c-28 36 -57 64 -63 62 -15 -5 -20 -95 -5 -113 10 -12 4 -14 -34 -14
l-46 0 6 118 c3 70 1 132 -5 155 l-10 37 83 0 c78 0 85 -2 104 -26 27 -35 26
-63 -4 -108 l-24 -36 50 -60 c28 -34 56 -59 62 -57 6 2 38 69 71 150 34 81 65
146 70 144 5 -2 30 -55 56 -120z m280 11 l111 -113 -3 99 c-2 69 -7 101 -16
104 -6 2 -10 8 -6 13 7 12 71 12 79 -1 3 -5 2 -10 -3 -10 -5 0 -12 -66 -16
-147 -4 -81 -9 -149 -12 -152 -2 -3 -53 43 -112 102 -60 59 -111 104 -115 100
-14 -14 5 -177 22 -190 13 -10 8 -12 -33 -13 -42 0 -47 2 -40 18 4 9 9 76 11
147 4 124 7 155 17 155 2 0 54 -51 116 -112z m458 102 c38 0 42 -2 42 -25 0
-29 -3 -30 -33 -11 -13 8 -34 12 -49 9 l-28 -5 0 -126 c0 -107 2 -127 18 -138
15 -12 11 -13 -34 -14 l-51 0 5 138 5 139 -33 7 c-23 4 -41 1 -57 -9 -22 -15
-23 -15 -23 16 l0 32 98 -6 c53 -4 116 -7 140 -7z m363 -106 c56 -57 106 -104
111 -104 12 0 -1 181 -13 195 -17 18 -9 25 30 25 39 0 40 -1 31 -27 -4 -16
-11 -86 -14 -157 -4 -72 -9 -132 -12 -135 -2 -3 -54 44 -114 104 l-110 110 0
-80 c0 -50 6 -90 14 -107 l15 -28 -45 0 c-41 0 -44 2 -34 19 5 11 10 76 10
145 0 126 5 160 21 150 5 -3 55 -52 110 -110z m419 -29 c28 -72 61 -140 73
-153 l22 -23 -45 3 c-43 3 -45 5 -61 48 -16 44 -17 45 -67 48 -50 3 -50 3 -62
-33 -6 -20 -9 -42 -6 -50 4 -12 -4 -15 -35 -15 l-40 0 20 28 c11 15 38 74 61
131 53 133 69 166 81 154 5 -5 31 -67 59 -138z m243 138 c94 -6 97 -7 97 -30
0 -23 -1 -23 -22 -9 -12 9 -35 16 -50 16 l-28 0 0 -133 c0 -90 4 -137 12 -145
9 -9 0 -12 -41 -12 -47 0 -52 2 -45 18 5 9 10 72 12 138 l3 121 -31 7 c-18 3
-40 1 -50 -4 -27 -14 -30 -13 -30 15 0 29 6 29 173 18z m232 -2 c3 -5 1 -12
-5 -16 -6 -3 -10 -47 -10 -98 0 -105 18 -156 61 -171 34 -12 81 11 90 44 11
40 10 218 -1 225 -22 14 -8 25 31 25 35 0 40 -3 34 -17 -4 -10 -10 -65 -14
-123 -10 -151 -32 -180 -133 -180 -46 0 -62 5 -85 24 -27 23 -28 29 -34 140
-3 69 -10 121 -17 128 -7 7 -12 16 -12 20 0 11 88 10 95 -1z m456 -11 c37 -20
43 -58 16 -112 l-24 -49 27 -37 c15 -21 41 -50 59 -64 39 -33 39 -38 0 -38
-31 0 -48 13 -116 94 -18 21 -38 36 -45 34 -19 -7 -21 -64 -4 -98 l14 -30 -50
0 c-44 0 -49 2 -42 18 5 9 10 73 12 141 3 105 1 126 -12 133 -9 5 -16 14 -16
20 0 14 151 4 181 -12z m319 -10 c0 -29 -1 -30 -22 -16 -13 8 -35 12 -50 9
-26 -5 -28 -9 -28 -55 l0 -50 45 6 45 7 0 -32 c0 -30 -1 -31 -17 -16 -12 10
-28 13 -45 10 -25 -5 -28 -9 -28 -48 0 -24 3 -50 6 -59 9 -22 73 -21 91 2 12
15 13 14 11 -13 l-3 -30 -85 -3 -85 -3 3 151 c3 119 1 150 -10 150 -10 0 -9 3
2 10 8 5 50 10 93 10 l77 0 0 -30z m-4300 -4 c0 -24 -1 -24 -29 -10 -45 22
-81 5 -81 -40 0 -44 19 -59 64 -50 35 6 36 6 36 -26 0 -31 -1 -32 -18 -17 -10
10 -31 17 -45 17 -27 0 -27 -1 -27 -68 0 -40 5 -73 12 -80 9 -9 0 -12 -41 -12
-47 0 -52 2 -45 18 5 9 10 72 12 138 3 102 0 124 -13 138 -15 15 -9 16 79 16
95 0 96 0 96 -24z m-672 -488 c38 -57 77 -118 86 -135 l17 -33 -91 0 -90 0 0
135 c0 74 2 135 5 135 2 0 35 -46 73 -102z m572 -18 c0 -5 -9 -10 -20 -10 -13
0 -20 -7 -20 -20 0 -13 7 -20 20 -20 11 0 20 -7 20 -15 0 -8 -3 -14 -7 -14
-25 4 -33 -4 -33 -31 0 -20 -5 -30 -15 -30 -12 0 -15 15 -15 75 l0 75 35 0
c19 0 35 -4 35 -10z m286 -65 c-1 -64 -3 -75 -18 -75 -16 0 -18 10 -18 75 0
66 2 75 19 75 16 0 18 -8 17 -75z m296 8 c3 -62 5 -68 28 -74 20 -6 17 -7 -17
-8 l-43 -1 0 68 c0 38 3 72 7 75 16 17 22 2 25 -60z m1081 53 c4 -11 -5 -14
-41 -13 l-47 2 -3 -38 c-5 -54 20 -81 66 -72 23 4 32 3 27 -4 -7 -12 -84 -15
-101 -3 -39 26 -40 100 -1 127 27 19 93 20 100 1z m331 -2 c19 -19 19 -17 4
-49 -10 -23 -8 -29 23 -61 32 -34 33 -36 9 -29 -14 4 -36 18 -51 31 -32 31
-43 30 -35 -1 5 -20 3 -25 -12 -25 -16 0 -18 9 -17 75 l0 75 32 0 c17 0 39 -7
47 -16z m336 9 l25 -7 -25 -6 c-32 -7 -40 -40 -11 -40 27 0 27 -16 1 -23 -28
-7 -26 -45 3 -57 19 -8 17 -9 -14 -9 -44 -1 -49 8 -49 90 0 55 2 59 23 59 12
0 33 -3 47 -7z m341 -64 c33 -85 33 -90 16 -83 -9 3 -23 17 -32 30 -20 31 -43
31 -51 -1 -3 -14 -12 -25 -20 -25 -11 0 -10 10 5 48 47 118 49 119 82 31z
m359 61 c0 -5 -12 -10 -26 -10 -25 0 -26 -2 -24 -52 3 -69 2 -78 -10 -78 -6 0
-10 28 -10 65 l0 65 -32 1 c-28 0 -30 2 -13 9 28 12 115 12 115 0z m280 -65
c0 -66 -2 -75 -18 -75 -17 0 -19 8 -17 68 3 85 2 82 20 82 12 0 15 -15 15 -75z
m375 50 c30 -29 33 -74 6 -106 -14 -18 -29 -24 -61 -24 -32 0 -47 6 -61 24
-42 51 -5 131 61 131 19 0 40 -9 55 -25z m399 -38 c-2 -92 -8 -97 -57 -49 -24
23 -47 42 -51 42 -5 0 -6 -20 -3 -45 5 -36 4 -43 -8 -39 -18 7 -22 129 -4 139
5 4 28 -11 49 -34 22 -23 42 -41 45 -41 3 0 5 21 5 46 0 32 4 44 13 41 8 -3
12 -23 11 -60z m326 53 c0 -5 -8 -10 -18 -10 -32 0 -32 -12 -2 -47 37 -41 38
-58 4 -80 -28 -18 -54 -10 -62 18 -4 11 -2 12 9 2 17 -17 49 -16 49 0 0 8 -9
22 -21 33 -36 33 -43 53 -23 75 18 20 64 26 64 9z m-3486 -47 l24 -48 23 48
c13 26 26 47 31 47 4 0 10 -17 13 -37 4 -21 11 -53 15 -70 7 -28 6 -33 -10
-33 -14 0 -20 11 -25 42 l-7 42 -19 -37 c-11 -20 -24 -37 -29 -37 -5 0 -17 15
-27 33 l-18 32 -3 -37 c-2 -27 -8 -38 -19 -38 -12 0 -14 7 -9 33 4 17 9 49 13
70 3 20 9 37 14 37 5 0 19 -21 33 -47z"/>
<path d="M1951 4531 c-35 -9 -35 -23 -3 -54 26 -25 31 -26 60 -16 38 13 39 19
10 46 -32 28 -40 31 -67 24z"/>
<path d="M1811 4484 l-34 -14 29 -31 c24 -25 34 -29 59 -25 47 10 52 23 20 56
-33 34 -29 34 -74 14z"/>
<path d="M1671 4439 l-24 -10 28 -29 c31 -33 40 -35 81 -20 l27 11 -28 29
c-30 32 -45 35 -84 19z"/>
<path d="M1860 4148 c-25 -41 -25 -58 -2 -58 36 0 60 13 71 36 18 41 14 54
-19 54 -23 0 -35 -7 -50 -32z"/>
<path d="M1995 4150 c-24 -47 -20 -60 20 -60 30 0 37 5 54 39 l20 39 -22 6
c-41 11 -56 6 -72 -24z"/>
<path d="M1715 4140 c-9 -17 -13 -35 -10 -40 6 -9 75 -15 75 -6 0 2 7 20 15
40 l15 36 -40 0 c-34 0 -42 -4 -55 -30z"/>
<path d="M2714 4136 c-3 -7 -4 -35 -2 -62 3 -47 4 -49 36 -52 27 -3 34 1 42
24 12 30 5 60 -18 87 -18 20 -51 22 -58 3z"/>
<path d="M3021 4039 c-13 -36 -7 -49 20 -49 25 0 32 20 20 53 -14 35 -27 34
-40 -4z"/>
<path d="M3700 4085 c0 -61 1 -65 23 -65 33 0 47 18 47 60 0 39 -24 70 -53 70
-14 0 -17 -11 -17 -65z"/>
<path d="M4002 4038 c-11 -39 -7 -48 18 -48 26 0 31 13 19 49 -14 40 -26 39
-37 -1z"/>
<path d="M5516 4047 c-19 -44 -15 -57 20 -57 28 0 31 18 10 65 l-14 30 -16
-38z"/>
<path d="M6442 4088 c3 -57 5 -63 26 -66 34 -5 52 15 52 58 0 42 -24 70 -59
70 -21 0 -22 -4 -19 -62z"/>
<path d="M4404 3615 c-7 -18 2 -45 15 -45 12 0 24 37 16 50 -9 15 -25 12 -31
-5z"/>
<path d="M6050 3609 c-13 -24 -5 -73 16 -89 7 -7 25 -9 39 -6 22 6 25 11 25
55 0 35 -4 51 -16 55 -30 11 -53 6 -64 -15z"/>
</g>
</svg>
