<?xml version="1.0" standalone="no"?>
<!DOCTYPE svg PUBLIC "-//W3C//DTD SVG 20010904//EN"
 "http://www.w3.org/TR/2001/REC-SVG-20010904/DTD/svg10.dtd">
<svg version="1.0" xmlns="http://www.w3.org/2000/svg"
 width="706.053785pt" height="268.381013pt" viewBox="0 0 706.053785 268.381013"
 preserveAspectRatio="xMidYMid meet">
<metadata>
Created by potrace 1.12, written by Peter Selinger 2001-2015
</metadata>
<g transform="translate(-30.840971,502.665948) scale(0.100000,-0.100000)"
fill="#000000" stroke="none">
<path d="M2474 5000 c-180 -56 -351 -158 -464 -276 -125 -131 -193 -268 -225
-451 -23 -129 -18 -354 9 -380 8 -9 94 44 183 114 131 101 265 262 358 428 43
78 50 86 53 63 5 -38 -74 -218 -134 -309 -50 -75 -203 -237 -304 -321 -30 -25
-52 -49 -47 -54 13 -13 258 46 332 80 221 103 358 294 411 572 14 73 15 124
10 284 -3 107 -10 213 -14 235 -7 37 -10 40 -42 42 -19 1 -76 -11 -126 -27z"/>
<path d="M3045 4586 c-13 -13 -29 -43 -35 -67 -22 -87 -26 -94 -58 -105 -56
-18 -60 -31 -24 -64 37 -34 37 -27 -4 -234 -35 -175 -32 -205 21 -192 29 7 34
23 76 231 17 88 37 166 44 174 7 7 28 16 46 20 26 5 35 12 37 31 2 20 -3 28
-28 37 -25 10 -30 17 -30 46 0 42 25 67 67 67 48 0 63 9 63 40 0 34 -14 40
-91 40 -50 0 -64 -4 -84 -24z"/>
<path d="M5974 4546 c-19 -19 -34 -41 -34 -50 0 -31 -29 -74 -54 -80 -37 -9
-42 -37 -12 -63 14 -12 26 -30 26 -40 0 -10 -14 -92 -32 -181 l-33 -164 33
-29 c37 -33 100 -40 126 -13 25 25 19 44 -20 60 l-36 15 6 57 c12 102 48 257
64 275 8 9 23 17 33 17 21 0 49 26 49 45 0 8 -15 18 -32 23 -36 9 -38 15 -24
110 7 45 6 52 -9 52 -9 0 -32 -15 -51 -34z"/>
<path d="M3395 4415 c-22 -8 -47 -23 -57 -35 -21 -26 -26 -25 -38 5 -13 33
-57 35 -69 2 -12 -31 -91 -418 -91 -445 0 -19 6 -22 40 -22 22 0 40 1 40 3 0
1 9 49 20 107 40 210 84 292 165 305 22 3 47 10 55 14 22 12 25 53 4 68 -21
16 -19 16 -69 -2z"/>
<path d="M4190 4421 c-120 -17 -211 -142 -212 -292 -1 -119 56 -195 156 -206
26 -3 56 1 81 11 21 9 42 13 47 8 12 -12 -11 -84 -34 -109 -48 -52 -149 -52
-177 1 -16 29 -54 51 -75 43 -11 -4 -16 -19 -16 -42 0 -100 154 -145 284 -85
59 28 81 65 111 185 40 155 97 446 91 461 -9 22 -64 18 -71 -6 -8 -26 -21 -25
-59 3 -38 29 -68 36 -126 28z m102 -100 c31 -28 33 -33 32 -99 -1 -128 -68
-222 -159 -222 -49 1 -70 16 -90 63 -19 47 -19 85 1 144 44 128 142 180 216
114z"/>
<path d="M4735 4416 c-16 -7 -39 -23 -49 -35 -26 -29 -46 -27 -46 5 0 22 -4
25 -27 22 -17 -2 -32 -12 -40 -28 -10 -21 -76 -353 -85 -430 -2 -19 2 -26 19
-28 39 -6 58 28 82 144 37 178 84 256 164 269 45 8 63 18 78 46 8 15 4 21 -20
34 -36 18 -38 18 -76 1z"/>
<path d="M5615 4420 c-22 -3 -62 -18 -88 -32 l-48 -27 -9 25 c-15 37 -61 30
-72 -11 -14 -53 -88 -412 -88 -429 0 -21 23 -30 55 -22 27 7 34 26 60 166 18
99 64 201 103 229 36 25 94 36 121 22 17 -10 21 -21 21 -62 0 -54 -72 -405
-90 -439 -5 -10 -22 -25 -38 -32 -34 -17 -41 -52 -13 -70 27 -17 27 -45 -4
-191 -33 -156 -33 -199 1 -226 36 -29 119 -30 134 -2 16 31 13 37 -30 54 -49
19 -49 21 -11 192 38 165 36 162 77 169 61 12 67 65 9 80 -16 4 -25 14 -25 26
0 10 18 105 40 210 44 210 49 282 23 320 -9 14 -17 26 -18 27 -8 14 -78 28
-110 23z"/>
<path d="M3625 4405 c-46 -16 -118 -88 -113 -113 6 -30 42 -24 104 18 64 44
101 50 158 26 36 -15 51 -43 41 -76 -10 -30 -32 -38 -142 -49 -124 -13 -142
-20 -182 -68 -30 -35 -32 -42 -29 -100 3 -44 10 -68 23 -83 53 -59 134 -68
218 -25 55 27 77 27 77 -1 0 -11 9 -14 32 -12 32 3 32 3 44 83 7 44 19 112 28
150 41 186 -5 266 -154 265 -36 -1 -83 -7 -105 -15z m161 -282 c-10 -42 -59
-104 -97 -125 -73 -39 -144 -11 -142 57 1 21 7 43 15 51 19 19 114 43 177 43
53 1 53 1 47 -26z"/>
<path d="M4965 4405 c-50 -18 -107 -78 -103 -108 5 -35 49 -34 90 1 47 42 71
52 118 52 67 0 111 -58 77 -104 -9 -13 -41 -21 -122 -32 -127 -18 -171 -36
-202 -83 -49 -73 -16 -185 62 -211 45 -15 127 -5 180 22 l40 20 13 -21 c10
-14 25 -21 47 -21 l33 0 7 68 c3 37 13 111 22 166 18 115 14 197 -11 225 -35
39 -173 53 -251 26z m165 -273 c0 -33 -45 -107 -79 -129 -66 -45 -161 -22
-161 37 0 78 47 104 193 109 39 1 47 -2 47 -17z"/>
<path d="M743 4359 c-116 -18 -341 -110 -411 -169 l-24 -19 57 -88 c172 -265
345 -411 586 -495 90 -31 101 -33 239 -33 161 0 214 12 329 70 79 40 154 93
147 104 -3 4 -85 11 -183 14 -199 8 -314 27 -436 75 -88 34 -202 99 -232 132
-19 21 -17 21 50 -5 204 -78 332 -108 525 -120 120 -7 277 8 298 29 12 11 12
18 0 39 -28 54 -137 173 -228 249 -180 151 -335 215 -538 223 -64 2 -145 0
-179 -6z"/>
<path d="M2394 3864 c-124 -22 -239 -79 -365 -180 l-69 -56 0 -72 c0 -94 22
-190 58 -263 44 -87 144 -232 192 -278 l41 -40 95 -3 c90 -4 99 -2 158 27 122
60 228 209 272 381 18 70 24 232 11 293 -10 47 -93 134 -157 165 -65 31 -152
41 -236 26z m-146 -345 c2 -14 -3 -31 -11 -37 -20 -17 -57 12 -57 44 0 22 4
25 33 22 26 -2 33 -8 35 -29z"/>
<path d="M4521 3793 c-16 -14 -29 -57 -60 -203 -22 -102 -42 -206 -46 -232
l-7 -48 36 0 c32 0 39 4 50 33 8 17 22 70 31 117 28 141 44 181 91 227 47 45
98 62 143 47 36 -13 36 -34 1 -217 -39 -207 -39 -207 5 -207 22 0 37 6 44 18
10 19 57 267 67 354 7 56 6 58 -29 93 -29 29 -42 35 -79 35 -51 0 -131 -25
-149 -46 -15 -18 -29 -18 -29 0 0 16 -26 46 -40 46 -4 0 -17 -8 -29 -17z"/>
<path d="M5127 3796 c-98 -36 -152 -127 -80 -134 25 -2 38 4 66 32 82 81 233
43 202 -52 -8 -28 -55 -42 -135 -42 -82 0 -144 -21 -187 -62 -60 -58 -55 -159
9 -211 31 -25 45 -29 92 -28 35 0 79 10 117 25 59 24 61 24 66 5 4 -15 14 -19
49 -19 l44 0 0 59 c0 32 12 118 26 190 25 129 26 131 7 168 -10 21 -33 46 -52
57 -44 25 -170 32 -224 12z m163 -276 c0 -32 -38 -103 -67 -124 -15 -11 -49
-21 -77 -24 -41 -3 -56 0 -78 18 -35 27 -38 78 -8 105 24 21 113 43 183 44 41
1 47 -2 47 -19z"/>
<path d="M5858 3793 c-8 -10 -21 -34 -27 -53 -22 -62 -61 -271 -61 -322 0 -43
4 -54 34 -84 31 -31 39 -34 93 -34 50 0 67 5 113 34 l55 35 3 -30 c3 -26 7
-29 36 -29 31 0 34 3 44 43 37 146 83 384 80 415 -3 32 -7 37 -30 40 -35 4
-43 -12 -74 -150 -45 -206 -99 -283 -197 -283 -79 0 -81 12 -36 241 18 88 29
168 26 177 -8 22 -40 22 -59 0z"/>
<path d="M6387 3798 c-16 -13 -92 -335 -104 -440 l-6 -48 40 0 40 0 17 83 c51
242 109 342 194 337 46 -3 52 -1 62 26 13 34 -2 54 -40 54 -34 0 -92 -24 -110
-44 -18 -23 -30 -20 -30 8 0 34 -33 46 -63 24z"/>
<path d="M6789 3794 c-55 -16 -121 -82 -151 -151 -23 -52 -34 -143 -24 -198 8
-40 63 -108 107 -131 35 -18 140 -18 182 0 37 16 102 79 123 119 14 26 13 28
-11 37 -37 14 -37 14 -80 -31 -54 -55 -88 -72 -133 -64 -21 3 -44 12 -53 18
-29 22 -54 83 -50 125 1 9 43 12 175 12 205 0 201 -2 193 95 -11 148 -124 217
-278 169z m161 -81 c23 -20 33 -40 37 -70 l6 -43 -116 0 c-63 0 -122 3 -131 6
-29 11 -17 46 29 91 41 39 50 43 95 43 40 0 56 -5 80 -27z"/>
<path d="M1541 3549 c-214 -28 -385 -131 -453 -274 -39 -83 -40 -178 -2 -254
43 -87 198 -207 346 -270 57 -23 75 -26 188 -26 142 1 168 9 245 77 74 65 88
104 82 218 -10 184 -82 387 -173 489 l-46 51 -61 -1 c-34 -1 -91 -5 -126 -10z
m80 -209 c28 -16 25 -58 -6 -70 -14 -5 -32 -7 -40 -4 -20 8 -19 48 1 68 18 19
20 19 45 6z"/>
<path d="M5237 3167 c-9 -22 -9 -167 -1 -219 11 -62 24 -32 23 50 -1 108 -12
192 -22 169z"/>
<path d="M5626 3139 c-9 -44 -8 -227 2 -232 4 -3 28 -7 53 -11 62 -9 98 19
106 81 10 78 -22 117 -102 125 -26 3 -30 8 -33 36 -4 41 -18 41 -26 1z m113
-95 c27 -34 27 -78 1 -104 -55 -55 -112 20 -80 104 13 35 52 35 79 0z"/>
<path d="M4433 3090 c-26 -11 -41 -56 -25 -72 7 -7 33 -23 59 -37 25 -14 48
-31 51 -38 6 -21 -48 -27 -78 -9 -34 20 -40 20 -40 2 0 -21 39 -46 71 -46 35
0 79 36 79 64 0 27 -25 51 -62 60 -15 3 -34 13 -43 22 -15 15 -15 18 -1 32 14
14 21 14 52 3 39 -14 53 -11 31 8 -20 16 -68 22 -94 11z"/>
<path d="M4723 3093 l-33 -4 0 -95 c0 -72 3 -95 13 -92 7 3 14 32 17 74 7 81
13 94 45 94 26 0 31 -9 40 -85 4 -27 9 -58 12 -69 9 -31 23 3 23 56 0 71 14
100 47 96 32 -3 40 -26 42 -115 1 -55 15 -77 25 -40 7 28 7 115 0 144 -8 28
-55 48 -91 37 -16 -4 -30 -7 -33 -7 -3 0 -21 3 -40 5 -19 3 -50 3 -67 1z"/>
<path d="M5040 3091 c-25 -7 -25 -8 -28 -129 -2 -98 0 -122 11 -122 8 0 19 11
25 24 7 17 22 25 50 30 88 14 120 119 57 182 -25 25 -63 30 -115 15z m90 -36
c7 -9 13 -37 12 -63 0 -35 -6 -51 -22 -64 -27 -22 -34 -22 -54 -2 -19 19 -22
114 -4 132 17 17 53 15 68 -3z"/>
<path d="M5310 3089 c0 -8 11 -49 25 -92 31 -95 32 -133 5 -149 -28 -18 -25
-30 7 -26 17 2 32 12 39 28 31 63 74 194 74 223 0 39 -10 28 -39 -43 -13 -30
-26 -59 -31 -63 -4 -5 -17 19 -30 52 -22 60 -50 99 -50 70z"/>
<path d="M5873 3090 c-26 -11 -35 -37 -36 -103 -1 -42 3 -53 27 -73 35 -31 88
-32 117 -3 27 27 10 52 -19 26 -32 -29 -92 -14 -92 22 0 24 19 31 80 31 53 0
65 9 56 44 -10 42 -87 75 -133 56z m86 -39 c12 -22 5 -31 -25 -31 -13 0 -26
-5 -29 -10 -8 -13 -35 6 -35 24 0 37 72 50 89 17z"/>
<path d="M6297 3080 c-8 -14 -23 -44 -33 -68 -9 -24 -21 -41 -27 -39 -6 2 -21
28 -33 57 -21 52 -44 77 -44 47 0 -8 11 -49 25 -91 30 -92 31 -106 5 -138 -20
-27 -18 -40 6 -31 18 6 72 112 104 200 25 68 23 103 -3 63z"/>
<path d="M6404 3090 c-68 -27 -71 -154 -5 -190 56 -30 131 18 131 83 0 91 -53
137 -126 107z m83 -54 c21 -46 8 -95 -30 -116 -27 -14 -29 -14 -48 9 -21 26
-26 90 -9 122 7 12 21 19 41 19 24 0 32 -7 46 -34z"/>
<path d="M6574 3065 c-10 -39 5 -132 25 -156 15 -19 23 -21 79 -14 l62 7 -1
71 c0 75 -12 126 -22 97 -3 -8 -9 -42 -13 -75 -8 -53 -12 -61 -37 -69 -36 -13
-43 -3 -51 76 -4 33 -10 66 -13 74 -8 22 -22 17 -29 -11z"/>
<path d="M4606 3060 c-10 -37 -3 -155 9 -153 13 4 18 103 7 145 -9 33 -9 33
-16 8z"/>
<path d="M2882 2618 c-15 -15 -17 -198 -2 -198 5 0 12 12 16 28 10 48 12 50
46 57 18 4 37 10 42 12 14 9 -17 23 -51 23 -29 0 -33 3 -33 25 0 26 3 29 53
39 15 4 25 11 22 16 -9 14 -79 12 -93 -2z"/>
<path d="M6105 2613 c-12 -11 -15 -25 -11 -46 4 -20 0 -36 -14 -54 -47 -61
-11 -104 84 -100 l57 2 -6 35 c-8 43 -12 50 -30 50 -8 0 -21 13 -30 30 -8 16
-23 33 -32 39 -17 9 -17 10 0 28 30 34 13 48 -18 16z m51 -169 c-4 -10 -16
-14 -33 -12 -34 4 -43 40 -17 69 17 19 18 19 37 -11 10 -17 16 -37 13 -46z"/>
<path d="M6395 2623 c-11 -3 -23 -10 -27 -17 -10 -15 -9 -136 1 -161 8 -17 10
-16 18 15 15 56 48 53 100 -6 34 -39 43 -45 43 -28 0 11 -7 29 -15 40 -19 25
-19 48 0 64 18 15 19 51 3 72 -14 17 -89 29 -123 21z m92 -34 c33 -28 -3 -63
-60 -57 -25 2 -33 8 -35 26 -5 35 16 55 51 48 17 -3 36 -11 44 -17z"/>
<path d="M4110 2526 c0 -93 17 -128 22 -45 2 30 8 54 15 56 7 3 34 -25 60 -61
43 -59 49 -64 61 -49 14 20 17 192 3 178 -6 -6 -11 -32 -13 -59 -2 -27 -8 -51
-14 -53 -5 -2 -30 24 -54 57 -26 36 -51 60 -62 60 -16 0 -18 -9 -18 -84z"/>
<path d="M5120 2509 c0 -101 12 -125 25 -48 5 29 14 43 31 51 35 16 73 -4 80
-42 12 -58 24 -29 24 57 0 53 -4 83 -9 78 -5 -6 -11 -21 -13 -35 -3 -23 -8
-25 -54 -28 l-52 -3 -6 36 c-13 68 -26 35 -26 -66z"/>
<path d="M6160 2579 c0 -17 4 -28 10 -24 6 3 10 17 10 31 0 13 -4 24 -10 24
-5 0 -10 -14 -10 -31z"/>
<path d="M3946 2593 c-13 -13 -6 -149 8 -169 20 -27 28 -14 16 26 -5 19 -7 57
-4 86 6 47 -3 74 -20 57z"/>
<path d="M5765 2524 c-5 -47 -4 -83 3 -97 8 -17 11 0 11 76 1 53 -1 97 -3 97
-2 0 -7 -34 -11 -76z"/>
<path d="M7177 2580 c-11 -14 -29 -20 -56 -20 -47 0 -57 -18 -46 -86 8 -54 25
-58 25 -6 0 41 23 82 45 82 19 0 35 -31 35 -67 0 -48 11 -73 31 -73 23 0 23 4
2 36 -14 22 -15 32 -5 71 10 36 10 48 -1 63 -13 19 -14 19 -30 0z"/>
<path d="M4505 2577 c-3 -7 -5 -47 -3 -88 2 -56 7 -74 18 -77 12 -2 15 12 15
85 0 59 -4 88 -13 91 -6 2 -14 -3 -17 -11z"/>
<path d="M5507 2583 c-18 -17 9 -173 29 -173 16 0 19 16 4 25 -5 3 -10 40 -10
81 0 68 -6 85 -23 67z"/>
<path d="M3045 2537 c-9 -34 -2 -112 10 -112 5 0 13 20 17 44 4 24 14 54 23
67 15 23 15 24 -15 24 -23 0 -31 -5 -35 -23z"/>
<path d="M3173 2554 c-27 -12 -11 -22 17 -11 22 8 33 8 41 0 18 -18 4 -40 -29
-48 -56 -12 -80 -65 -37 -81 8 -4 36 -3 61 1 l45 6 -3 67 -3 67 -40 2 c-22 1
-46 0 -52 -3z m65 -96 c-2 -17 -11 -24 -30 -26 -19 -2 -28 1 -28 10 0 20 21
38 43 38 13 0 18 -6 15 -22z"/>
<path d="M3341 2543 c-50 -41 -18 -133 46 -133 18 0 24 -5 21 -17 -3 -14 -13
-18 -41 -17 -39 1 -46 -6 -22 -26 20 -16 73 -3 86 22 6 11 12 57 12 102 l2 81
-41 3 c-28 2 -48 -3 -63 -15z m79 -33 c14 -34 1 -65 -32 -76 -45 -14 -68 71
-27 100 27 19 44 12 59 -24z"/>
<path d="M3496 2544 c-9 -24 -7 -124 3 -124 10 0 21 34 21 66 0 12 9 33 21 48
l20 26 -29 0 c-18 0 -32 -6 -36 -16z"/>
<path d="M3610 2550 c-24 -15 -5 -22 24 -9 19 9 30 9 38 1 15 -15 2 -42 -21
-42 -10 0 -29 -8 -41 -18 -18 -15 -22 -25 -16 -46 6 -26 9 -27 64 -24 l57 3 3
58 c2 35 -2 64 -9 73 -13 16 -76 19 -99 4z m65 -95 c0 -22 -31 -33 -47 -17
-17 17 -1 44 24 40 15 -2 23 -10 23 -23z"/>
<path d="M3770 2490 c0 -38 4 -70 9 -70 13 0 21 26 21 65 0 18 3 40 6 49 16
41 64 -2 64 -57 0 -39 19 -62 22 -25 5 85 -12 108 -79 108 l-43 0 0 -70z"/>
<path d="M4347 2553 c-15 -15 -6 -22 13 -11 15 10 25 10 38 2 27 -18 20 -37
-18 -47 -44 -11 -60 -24 -60 -48 0 -25 30 -39 84 -39 l46 0 0 63 c0 36 -5 68
-12 75 -13 13 -80 17 -91 5z m73 -86 c0 -19 -21 -37 -42 -37 -18 0 -25 29 -11
43 12 12 53 7 53 -6z"/>
<path d="M4580 2511 c0 -78 13 -101 55 -101 47 0 75 29 74 78 0 20 -4 46 -8
57 -6 15 -10 8 -15 -32 -10 -66 -28 -92 -53 -77 -10 6 -19 25 -21 45 -7 89
-32 112 -32 30z"/>
<path d="M4750 2503 c0 -32 5 -65 10 -73 7 -11 10 -3 10 28 0 50 14 82 35 82
8 0 15 5 15 10 0 6 -16 10 -35 10 l-35 0 0 -57z"/>
<path d="M4870 2540 c-29 -29 -27 -94 2 -114 31 -22 71 -20 93 4 20 22 9 26
-29 9 -20 -9 -29 -9 -41 1 -25 21 -12 35 36 40 36 4 45 9 47 28 4 25 -13 30
-22 7 -3 -9 -18 -15 -36 -15 -40 0 -42 34 -2 48 l27 10 -27 1 c-16 1 -37 -8
-48 -19z"/>
<path d="M5349 2541 c-25 -20 -30 -72 -10 -110 14 -26 66 -29 99 -5 29 20 31
93 4 117 -25 22 -64 21 -93 -2z m79 -3 c7 -7 12 -28 12 -48 0 -41 -14 -60 -47
-60 -25 0 -43 26 -43 64 0 45 49 73 78 44z"/>
<path d="M5608 2543 c-24 -28 -28 -50 -17 -83 17 -46 77 -68 107 -38 20 20 13
28 -13 16 -19 -8 -31 -8 -51 1 -38 17 -24 35 32 41 45 5 49 7 46 30 -5 47 -73
69 -104 33z m72 -12 c15 -28 13 -31 -19 -31 -33 0 -46 13 -37 35 8 21 44 18
56 -4z"/>
<path d="M5841 2551 c-22 -14 2 -60 39 -74 17 -6 30 -17 30 -25 0 -19 -30 -27
-52 -13 -25 15 -35 7 -18 -14 19 -23 76 -19 94 6 20 29 11 45 -35 63 -40 16
-52 42 -24 52 8 4 22 1 30 -6 9 -7 19 -10 22 -6 20 20 -58 35 -86 17z"/>
<path d="M6586 2538 c-23 -33 -20 -81 7 -106 28 -26 85 -30 94 -7 8 23 -2 28
-26 13 -16 -10 -26 -10 -39 -2 -31 20 -19 38 32 49 57 12 66 25 37 54 -29 29
-85 28 -105 -1z m72 -15 c3 -19 -1 -23 -21 -23 -26 0 -38 15 -29 38 8 22 47
10 50 -15z"/>
<path d="M6755 2546 c-25 -18 -14 -42 32 -63 21 -10 38 -25 38 -33 0 -19 -42
-25 -62 -9 -13 11 -15 10 -12 -6 6 -30 83 -34 99 -6 14 28 -1 55 -40 71 -30
12 -39 33 -20 45 5 3 18 0 29 -7 11 -7 24 -9 28 -5 4 5 1 12 -7 17 -22 14 -63
12 -85 -4z"/>
<path d="M6919 2539 c-17 -17 -20 -29 -16 -62 3 -23 14 -47 23 -54 26 -19 68
-16 87 5 20 22 23 102 5 120 -20 20 -76 14 -99 -9z m73 -6 c22 -20 24 -76 3
-93 -20 -16 -65 -4 -67 18 -4 51 11 92 35 92 6 0 19 -7 29 -17z"/>
<path d="M7267 2542 c-21 -23 -8 -44 42 -70 19 -9 35 -21 35 -27 1 -15 -43
-18 -60 -4 -19 16 -30 4 -14 -16 16 -20 64 -19 85 1 26 26 15 57 -25 70 -38
13 -52 40 -24 51 9 3 26 0 38 -7 19 -12 20 -12 7 3 -18 22 -64 22 -84 -1z"/>
</g>
</svg>
