<?xml version="1.0" standalone="no"?>
<!DOCTYPE svg PUBLIC "-//W3C//DTD SVG 20010904//EN"
 "http://www.w3.org/TR/2001/REC-SVG-20010904/DTD/svg10.dtd">
<svg version="1.0" xmlns="http://www.w3.org/2000/svg"
 width="574.000000pt" height="204.000000pt" viewBox="0 0 574.000000 204.000000"
 preserveAspectRatio="xMidYMid meet">
<metadata>
Created by potrace 1.12, written by Peter Selinger 2001-2015
</metadata>
<g transform="translate(-99.000000,527.000000) scale(0.100000,-0.100000)"
fill="#000000" stroke="none">
<path d="M3664 5206 c-137 -73 -682 -391 -702 -411 -11 -10 -16 -77 -22 -281
-5 -148 -7 -271 -5 -273 6 -5 148 77 343 197 85 51 156 92 158 89 2 -2 8 -67
12 -143 l7 -139 179 2 c98 1 181 4 184 7 9 10 14 929 5 971 -5 22 -15 41 -23
42 -8 2 -70 -26 -136 -61z"/>
<path d="M3935 5248 c-4 -13 -10 -245 -12 -515 l-5 -493 175 0 174 0 5 113 c3
62 10 123 17 135 14 27 25 23 165 -55 275 -153 311 -172 321 -162 13 13 11
453 -2 494 -10 33 -44 59 -223 164 -240 142 -592 341 -603 341 -3 0 -8 -10
-12 -22z"/>
<path d="M3625 4106 c-207 -68 -293 -217 -236 -406 41 -135 133 -193 306 -193
149 0 243 74 281 224 27 105 -5 207 -90 287 -89 84 -181 115 -261 88z m110
-209 c82 -82 42 -227 -61 -227 -71 0 -104 43 -104 136 0 50 3 59 34 90 46 46
86 46 131 1z"/>
<path d="M1603 4091 c-70 -24 -138 -82 -170 -144 -35 -67 -37 -174 -5 -256 54
-139 125 -186 277 -184 109 1 163 20 222 76 60 57 87 124 87 217 1 62 -4 85
-27 132 -71 145 -232 212 -384 159z m152 -183 c34 -27 55 -75 55 -129 0 -33
-6 -47 -34 -75 -27 -27 -42 -34 -72 -34 -46 1 -65 13 -87 57 -61 117 45 255
138 181z"/>
<path d="M2740 3806 l0 -306 150 0 c206 0 236 8 314 81 146 137 153 287 19
431 -58 61 -103 75 -278 83 -71 3 -147 8 -167 11 l-38 6 0 -306z m317 108 c13
-8 33 -29 43 -47 53 -86 -15 -202 -115 -195 -38 3 -40 4 -48 48 -13 72 -2 192
20 208 21 15 65 9 100 -14z"/>
<path d="M990 3799 l0 -300 166 3 c150 3 167 5 180 22 20 28 17 73 -6 96 -16
16 -33 20 -85 20 l-65 0 0 230 0 230 -95 0 -95 0 0 -301z"/>
<path d="M2090 3801 l0 -302 93 3 92 3 7 125 c4 69 9 131 10 139 2 7 35 -38
75 -100 99 -158 104 -162 208 -167 l85 -5 0 302 0 301 -95 0 -94 0 -3 -139 -3
-138 -80 115 c-103 147 -114 156 -216 161 l-79 3 0 -301z"/>
<path d="M4052 3803 l3 -298 91 -3 c106 -3 104 -6 104 108 0 36 3 89 6 118 l7
52 81 -122 c95 -143 116 -158 218 -158 l68 0 0 300 0 300 -95 0 -94 0 -3 -142
-3 -141 -39 59 c-82 125 -137 192 -170 208 -21 10 -61 16 -105 16 l-71 0 2
-297z"/>
<path d="M4740 4087 c-15 -7 -26 -22 -28 -37 -4 -43 11 -54 86 -58 l69 -4 6
-222 c3 -122 9 -229 13 -239 11 -29 55 -34 76 -7 16 20 18 44 18 246 l0 224
63 0 c76 0 110 19 105 58 -5 44 -36 52 -218 52 -113 0 -173 -4 -190 -13z"/>
<path d="M5180 4096 c0 -2 34 -73 75 -157 79 -163 115 -277 115 -365 0 -59 14
-74 67 -74 47 0 60 18 66 90 8 83 39 171 122 344 36 76 64 144 61 152 -3 9
-20 14 -46 14 -54 0 -91 -36 -132 -130 -50 -112 -54 -118 -72 -100 -8 8 -35
53 -60 100 -60 110 -83 130 -147 130 -27 0 -49 -2 -49 -4z"/>
<path d="M5790 4074 c-6 -14 -10 -138 -10 -279 0 -230 2 -255 18 -275 22 -27
65 -22 77 7 3 10 11 90 16 178 5 88 11 164 12 168 1 4 47 -57 101 -137 111
-165 161 -221 204 -231 79 -17 89 29 76 342 -10 228 -11 235 -66 248 -47 12
-57 -19 -66 -211 l-7 -169 -95 140 c-113 168 -184 245 -223 245 -20 0 -30 -7
-37 -26z"/>
<path d="M6410 3800 l0 -300 123 0 c141 0 197 11 197 40 0 26 -22 36 -105 49
-84 12 -105 32 -105 97 0 39 3 46 26 54 14 6 56 10 93 10 80 0 101 14 83 55
-12 25 -45 37 -134 50 -54 7 -70 22 -71 69 -2 55 15 66 100 66 93 0 113 10
113 56 0 48 -22 54 -186 54 l-134 0 0 -300z"/>
<path d="M3495 3332 c-20 -5 -33 -16 -40 -36 -8 -24 -6 -31 14 -47 20 -17 41
-19 166 -19 146 0 188 7 198 33 8 22 -3 55 -21 63 -23 10 -279 14 -317 6z"/>
<path d="M3936 3332 c-36 -9 -51 -31 -43 -64 9 -34 27 -38 189 -38 165 0 188
6 188 54 0 23 -6 36 -17 41 -24 11 -280 16 -317 7z"/>
</g>
</svg>
