<?xml version="1.0" standalone="no"?>
<!DOCTYPE svg PUBLIC "-//W3C//DTD SVG 20010904//EN"
 "http://www.w3.org/TR/2001/REC-SVG-20010904/DTD/svg10.dtd">
<svg version="1.0" xmlns="http://www.w3.org/2000/svg"
 width="586.779023pt" height="113.025628pt" viewBox="0 0 586.779023 113.025628"
 preserveAspectRatio="xMidYMid meet">
<metadata>
Created by potrace 1.12, written by Peter Selinger 2001-2015
</metadata>
<g transform="translate(-113.000000,455.012814) scale(0.100000,-0.100000)"
fill="#000000" stroke="none">
<path d="M1130 3985 l0 -565 743 2 742 3 3 100 c2 64 7 102 15 107 7 4 975 8
2152 9 1177 1 2172 5 2210 8 39 4 -326 9 -810 12 -734 4 -887 7 -920 20 l-40
14 -3 66 -3 65 63 -4 c75 -4 113 16 163 87 26 37 30 51 30 109 0 77 -31 144
-77 168 -38 20 -98 17 -136 -6 -40 -25 -38 -25 -45 1 -5 19 -10 21 -39 14 -69
-16 -81 -12 -104 30 -101 178 -297 212 -434 75 -52 -52 -74 -104 -78 -188 -5
-88 14 -146 66 -204 58 -64 103 -83 202 -83 74 0 91 3 131 27 78 46 139 150
139 238 0 41 16 62 31 39 5 -8 9 -108 9 -222 l0 -208 -35 -15 c-29 -12 -212
-14 -1260 -14 l-1225 0 -2 438 -3 437 -742 3 -743 2 0 -565z m1460 0 l0 -535
-715 0 -715 0 0 535 0 535 715 0 715 0 0 -535z m2346 313 c18 -20 37 -53 43
-75 14 -49 14 -197 0 -248 -22 -79 -82 -120 -167 -113 -48 4 -60 10 -88 41
-41 45 -54 91 -54 197 1 109 12 155 47 192 39 41 59 48 127 45 53 -3 62 -7 92
-39z m411 -180 c33 -37 43 -64 43 -118 0 -92 -34 -140 -97 -140 -56 0 -67 18
-71 123 -4 96 -4 96 26 127 36 36 71 39 99 8z"/>
<path d="M1253 4483 l-52 -4 -6 -62 c-9 -89 -2 -904 8 -914 12 -12 1308 -15
1327 -3 13 8 15 74 15 489 0 264 -4 483 -8 488 -8 8 -1182 13 -1284 6z m927
-128 c0 -17 56 -55 81 -55 8 0 24 -6 34 -14 18 -13 18 -14 -3 -50 -24 -41 -28
-76 -11 -93 8 -8 3 -22 -16 -51 -34 -51 -36 -102 -7 -141 12 -17 22 -32 22
-34 0 -3 -34 -21 -75 -40 l-75 -36 0 -48 c0 -26 -3 -78 -7 -115 -5 -57 -9 -68
-25 -68 -13 0 -26 17 -44 58 -27 60 -69 112 -91 112 -8 0 -28 7 -44 16 -28 14
-33 14 -54 0 -14 -9 -30 -16 -38 -16 -7 0 -27 -12 -45 -27 -26 -22 -35 -38
-40 -78 l-7 -50 -40 0 c-28 0 -40 5 -42 15 -11 84 -13 90 -41 90 -15 -1 -61
-18 -102 -38 -63 -31 -75 -41 -78 -65 -3 -21 -9 -27 -27 -27 -43 0 -40 66 5
129 45 64 70 139 70 210 0 67 1 69 37 97 47 38 105 71 229 133 97 48 144 86
144 118 0 8 5 11 10 8 17 -10 12 -23 -25 -64 -20 -22 -72 -57 -123 -84 -49
-24 -108 -57 -130 -71 -45 -28 -77 -69 -67 -86 4 -6 52 -10 120 -10 132 0 143
6 211 107 63 94 163 211 212 249 47 36 82 44 82 19z m220 -470 c-16 -19 -31
-19 -56 0 -18 13 -16 14 25 15 37 0 42 -2 31 -15z"/>
<path d="M3504 4376 c-15 -12 -17 -19 -8 -32 18 -30 40 -39 58 -25 21 17 21
57 0 65 -22 9 -28 8 -50 -8z"/>
<path d="M5730 4375 c-10 -12 -9 -20 4 -40 9 -14 23 -25 31 -25 8 0 22 11 31
25 20 30 6 55 -31 55 -12 0 -28 -7 -35 -15z"/>
<path d="M6859 4381 c-14 -5 -35 -14 -47 -20 l-23 -12 23 -19 c22 -18 23 -23
26 -230 3 -178 1 -216 -12 -236 -9 -13 -16 -26 -16 -29 0 -3 34 -5 75 -5 41 0
75 3 75 7 0 3 -8 15 -17 26 -16 17 -18 46 -21 240 -4 301 -2 296 -63 278z"/>
<path d="M2761 4361 c-12 -8 -10 -12 12 -22 l27 -12 0 -228 0 -228 -32 -18
-33 -17 38 -6 c46 -8 137 -1 137 11 0 5 -11 11 -25 15 l-25 6 0 174 c0 96 4
174 9 174 4 0 32 -53 61 -117 84 -187 119 -253 135 -253 14 0 68 105 142 275
41 94 59 117 69 92 8 -23 -1 -307 -10 -330 -5 -9 -19 -20 -32 -23 -50 -13 -20
-21 99 -28 117 -6 277 1 277 12 0 3 -8 14 -17 24 -13 15 -18 49 -23 173 -3 85
-9 157 -13 161 -7 8 -72 -10 -96 -25 -12 -8 -11 -13 9 -29 21 -17 25 -30 28
-96 8 -143 -11 -196 -68 -196 -55 0 -60 21 -60 256 0 197 1 212 20 229 29 26
16 35 -50 35 l-59 0 -96 -197 c-74 -152 -98 -194 -106 -183 -5 8 -47 92 -93
186 -50 104 -92 176 -104 183 -25 13 -101 14 -121 2z"/>
<path d="M3672 4243 c-50 -56 -59 -83 -27 -83 13 0 15 -19 15 -117 0 -131 11
-188 40 -203 34 -18 74 -11 110 19 l34 28 48 -35 c45 -32 53 -34 108 -30 48 3
67 10 97 34 74 60 103 166 65 241 -72 140 -248 147 -320 13 -21 -40 -23 -54
-19 -122 4 -65 2 -79 -13 -93 -25 -22 -53 -15 -61 15 -11 38 -10 209 1 229 5
10 23 21 41 25 40 8 33 29 -12 36 -33 5 -34 7 -37 53 -2 26 -6 47 -10 47 -4 0
-31 -26 -60 -57z m366 -96 c49 -52 70 -172 40 -234 -29 -61 -99 -68 -138 -14
-25 37 -44 130 -35 182 14 83 84 118 133 66z"/>
<path d="M5556 4276 c-8 -14 -31 -40 -51 -59 l-35 -34 25 -23 c23 -22 25 -31
26 -114 1 -118 12 -195 30 -207 29 -18 78 -10 111 20 37 33 34 47 -7 31 -19
-7 -31 -7 -40 0 -16 13 -29 193 -17 235 10 35 26 40 81 25 l41 -11 0 -131 c0
-108 -3 -135 -17 -150 -9 -10 -14 -20 -12 -22 5 -5 196 -10 273 -8 l59 2 -24
26 c-22 24 -24 33 -24 136 l0 110 30 24 c38 31 80 31 99 2 14 -23 22 -109 18
-200 -1 -33 -8 -54 -22 -68 -11 -11 -20 -22 -20 -25 0 -10 159 -5 165 5 3 6
-1 10 -9 10 -9 0 -19 15 -25 38 -13 46 -14 182 -2 215 11 29 61 52 95 43 31
-8 36 -29 36 -157 0 -93 -3 -110 -21 -133 l-22 -28 89 5 c49 3 94 6 99 6 6 0
31 -2 56 -5 30 -4 58 0 82 9 31 13 37 14 48 1 17 -21 72 -17 103 7 33 26 35
52 3 44 -24 -6 -24 -6 -30 119 -7 131 -15 156 -55 178 -40 21 -136 16 -169 -8
-41 -31 -56 -64 -39 -89 22 -34 40 -28 66 22 28 53 49 63 85 39 31 -20 36 -83
8 -92 -10 -3 -46 -18 -81 -35 -78 -37 -106 -75 -97 -136 4 -25 2 -43 -3 -43
-25 0 -34 37 -41 158 -7 141 -19 174 -68 193 -34 13 -73 4 -118 -27 l-37 -24
-29 24 c-46 39 -83 42 -141 12 -59 -31 -58 -30 -58 -11 0 23 -24 28 -64 15
-46 -15 -52 -26 -30 -52 15 -16 19 -40 22 -126 4 -124 -6 -162 -42 -162 -14 0
-28 6 -33 13 -4 6 -10 83 -13 169 -3 96 -9 161 -16 168 -8 8 -21 7 -48 -4 -32
-13 -44 -14 -88 -2 -29 7 -53 17 -54 22 -1 5 -5 26 -9 47 -7 43 -17 46 -39 13z
m1112 -299 c3 -39 -1 -51 -22 -72 -34 -34 -82 -34 -98 0 -17 38 0 76 47 102
57 32 69 27 73 -30z"/>
<path d="M4361 4190 c-52 -24 -71 -25 -71 -5 0 19 -31 19 -75 1 -40 -17 -43
-26 -15 -51 18 -16 20 -31 20 -133 0 -99 -3 -118 -21 -143 l-20 -29 38 -1 c55
-1 117 2 122 7 3 2 -5 14 -16 27 -27 28 -37 91 -28 169 6 49 13 68 35 90 34
33 70 36 95 8 16 -18 19 -38 19 -130 1 -101 -1 -110 -23 -134 -14 -14 -22 -28
-19 -31 7 -8 148 -8 156 -1 3 3 -4 16 -15 29 -18 19 -22 40 -28 155 -7 116
-11 137 -29 158 -29 34 -72 38 -125 14z"/>
</g>
</svg>
