<?xml version="1.0" standalone="no"?>
<!DOCTYPE svg PUBLIC "-//W3C//DTD SVG 20010904//EN"
 "http://www.w3.org/TR/2001/REC-SVG-20010904/DTD/svg10.dtd">
<svg version="1.0" xmlns="http://www.w3.org/2000/svg"
 width="606.145920pt" height="248.513866pt" viewBox="0 0 606.145920 248.513866"
 preserveAspectRatio="xMidYMid meet">
<metadata>
Created by potrace 1.12, written by Peter Selinger 2001-2015
</metadata>
<g transform="translate(-9.787202,282.275363) scale(0.100000,-0.100000)"
fill="#000000" stroke="none">
<path d="M2960 2800 c-230 -44 -406 -102 -607 -201 l-143 -69 0 -79 c0 -44 3
-82 8 -85 4 -2 60 6 124 19 170 35 327 54 554 67 l201 12 7 65 c3 36 6 117 6
179 l0 112 -27 -1 c-16 -1 -71 -9 -123 -19z"/>
<path d="M3150 2643 l0 -180 148 -7 c199 -10 394 -31 581 -65 86 -16 159 -27
164 -24 4 2 7 40 7 83 0 94 10 85 -171 166 -207 94 -494 179 -671 200 l-58 7
0 -180z"/>
<path d="M2943 2398 c-194 -8 -400 -30 -583 -64 -144 -26 -379 -85 -436 -109
l-34 -14 0 -185 c0 -103 2 -186 3 -186 2 0 29 9 60 19 118 41 362 81 647 107
226 20 766 23 985 5 234 -19 596 -72 765 -112 13 -3 15 19 18 151 4 207 2 215
-51 229 -465 125 -923 178 -1374 159z m225 -186 c19 -25 14 -50 -13 -68 -37
-24 -75 -6 -75 35 0 52 55 73 88 33z m-296 1 c24 -21 23 -55 -3 -79 -19 -17
-23 -17 -47 -3 -33 18 -40 54 -16 80 21 23 42 24 66 2z m576 1 c30 -21 29 -59
-3 -80 -23 -15 -27 -15 -50 0 -30 20 -32 49 -5 76 24 24 29 24 58 4z m-858
-24 c11 -11 20 -27 20 -35 0 -8 -9 -24 -20 -35 -11 -11 -27 -20 -35 -20 -18 0
-55 35 -55 53 0 25 32 53 63 56 4 1 16 -8 27 -19z m1142 -2 c24 -20 28 -44 12
-67 -18 -25 -56 -27 -78 -5 -21 21 -20 40 4 64 23 23 40 25 62 8z m-1398 -44
c26 -26 16 -61 -21 -75 -48 -18 -85 25 -58 67 18 28 56 32 79 8z m1658 -1 c24
-21 23 -45 -2 -68 -29 -27 -74 -10 -78 28 -6 52 41 76 80 40z"/>
<path d="M870 2121 c-290 -89 -557 -204 -598 -256 -36 -46 -29 -90 26 -161
254 -328 326 -414 350 -414 23 0 24 3 19 35 -12 75 28 35 222 -225 l193 -260
165 0 c128 0 164 3 160 13 -2 6 -32 100 -67 207 -34 107 -100 303 -146 434
-46 132 -84 246 -84 253 0 10 9 13 27 11 27 -3 31 -13 177 -458 82 -250 150
-456 151 -457 0 -1 85 -3 189 -3 l187 -2 2 456 c2 349 -1 456 -10 456 -7 0
-58 -9 -115 -20 -165 -31 -461 -81 -464 -77 -6 6 -84 260 -105 340 -29 114
-47 153 -75 166 -34 15 -30 16 -204 -38z m205 -108 c15 -49 33 -109 41 -135 9
-26 13 -52 9 -58 -3 -5 -27 -10 -53 -10 -44 0 -518 -32 -663 -45 -53 -5 -70
-3 -82 10 -41 40 34 88 304 195 111 44 365 125 406 129 7 1 23 -36 38 -86z
m15 -299 c7 -19 10 -37 8 -38 -1 -2 -29 -6 -61 -9 -57 -6 -58 -5 -78 26 -31
52 -27 57 50 57 l69 0 12 -36z m-160 -6 c11 -18 20 -36 20 -40 0 -5 -29 -8
-65 -8 -63 0 -66 1 -85 33 -11 17 -20 35 -20 40 0 4 29 7 65 7 63 0 66 -1 85
-32z m-160 -10 c11 -18 20 -36 20 -40 0 -5 -27 -8 -59 -8 -57 0 -60 2 -80 34
-12 18 -21 36 -21 40 0 3 27 6 60 6 57 0 61 -2 80 -32z m-151 -7 c12 -16 21
-32 21 -35 0 -3 -19 -6 -43 -6 -36 0 -47 5 -65 30 -12 16 -22 32 -22 35 0 3
20 5 44 5 38 0 48 -4 65 -29z m-160 -7 c27 -34 26 -44 0 -44 -21 0 -38 15 -60
53 -17 30 36 22 60 -9z m665 -81 c24 -71 23 -73 -38 -73 l-53 0 -19 47 c-11
27 -20 51 -22 55 -3 6 26 11 95 16 17 2 24 -7 37 -45z m-139 -13 c15 -29 25
-54 23 -56 -2 -2 -29 -6 -60 -10 l-56 -7 -26 51 c-14 28 -26 55 -26 60 0 5 27
10 60 11 l59 2 26 -51z m-297 -14 c17 -30 32 -57 32 -60 0 -3 -13 -6 -30 -6
-23 0 -37 10 -69 52 -42 55 -40 68 9 68 20 0 32 -11 58 -54z m147 4 c14 -27
25 -52 25 -55 0 -3 -24 -5 -54 -5 l-54 0 -31 50 c-17 28 -31 52 -31 55 0 3 27
5 60 5 l60 0 25 -50z m-292 -13 c32 -44 35 -53 20 -56 -11 -2 -33 14 -60 45
-49 56 -51 64 -20 64 15 0 34 -17 60 -53z m622 -90 c7 -18 17 -45 20 -60 7
-26 6 -27 -38 -27 l-46 0 -25 56 c-14 31 -26 58 -26 60 0 2 23 4 51 4 47 0 51
-2 64 -33z m-255 -34 l30 -53 -52 0 c-52 0 -53 1 -85 50 -18 27 -33 52 -33 55
0 3 25 5 55 3 56 -3 56 -3 85 -55z m138 12 c12 -25 22 -50 22 -55 0 -6 -25
-10 -55 -10 -53 0 -55 1 -80 43 -36 62 -34 67 33 67 l58 0 22 -45z m-406 -22
c33 -46 36 -53 19 -53 -17 0 -101 87 -101 105 0 3 10 5 22 3 12 -2 38 -26 60
-55z m130 12 c33 -48 35 -61 7 -61 -13 0 -34 16 -54 41 -51 64 -52 67 -14 63
26 -2 39 -12 61 -43z m202 -119 c14 -25 26 -49 26 -55 0 -6 -18 -11 -40 -11
-36 0 -43 5 -75 48 -19 26 -35 50 -35 55 0 4 22 7 49 7 47 0 50 -1 75 -44z
m134 -1 c12 -25 22 -50 22 -55 0 -6 -22 -10 -48 -10 -48 0 -49 1 -75 49 -15
27 -27 51 -27 55 0 3 24 6 53 6 53 0 53 0 75 -45z m103 18 c6 -16 13 -40 16
-54 5 -25 3 -26 -33 -24 -36 2 -40 6 -61 54 l-23 51 45 0 c40 0 47 -3 56 -27z
m-353 -33 c31 -49 31 -50 9 -50 -16 0 -35 16 -60 50 l-37 50 28 0 c24 0 35 -9
60 -50z m70 -112 c44 -65 45 -68 28 -68 -14 0 -85 85 -86 103 0 22 33 1 58
-35z m125 -8 c15 -28 27 -52 27 -55 0 -3 -18 -5 -39 -5 -36 0 -42 4 -70 48
-17 27 -31 52 -31 55 0 4 19 7 43 7 40 0 43 -3 70 -50z m117 4 c11 -26 20 -48
20 -50 0 -2 -20 -4 -45 -4 -42 0 -46 2 -70 43 -14 24 -25 47 -25 50 0 4 22 7
50 7 49 0 49 0 70 -46z m79 24 c4 -13 11 -35 15 -50 6 -26 4 -28 -23 -28 -16
0 -31 6 -34 13 -3 6 -12 29 -21 50 l-16 37 35 0 c28 0 37 -5 44 -22z m-35
-120 c8 -13 18 -35 21 -50 7 -27 5 -28 -28 -28 -31 0 -39 5 -61 43 l-26 42 33
6 c17 4 35 7 39 8 4 0 14 -9 22 -21z m79 -23 c16 -44 16 -45 -7 -45 -16 0 -26
10 -36 38 -8 20 -16 40 -18 45 -2 4 8 7 21 7 21 0 28 -8 40 -45z m-296 18 c7
-10 21 -31 30 -48 l16 -30 -23 20 c-34 31 -63 75 -49 75 6 0 18 -8 26 -17z
m123 -23 c11 -21 20 -42 20 -45 0 -3 -15 -5 -34 -5 -28 0 -38 6 -60 40 -14 22
-26 42 -26 45 0 3 18 5 40 5 36 0 41 -3 60 -40z"/>
<path d="M1497 2057 c-284 -58 -297 -61 -291 -81 3 -12 9 -24 13 -28 13 -15
592 93 619 115 22 18 10 52 -18 53 -14 1 -159 -26 -323 -59z"/>
<path d="M4414 2088 l2 -31 483 -95 c509 -99 505 -99 499 -48 -3 18 -53 30
-478 113 -261 51 -482 93 -491 93 -12 0 -16 -8 -15 -32z"/>
<path d="M4415 1905 c0 -101 1 -105 22 -105 12 0 53 -7 91 -15 105 -22 824
-146 827 -143 7 8 25 113 25 143 0 28 -5 36 -22 40 -13 2 -165 32 -338 65
-291 56 -536 104 -585 115 -19 4 -20 -1 -20 -100z"/>
<path d="M1785 1995 c-5 -3 -109 -23 -230 -45 -121 -22 -243 -45 -271 -50
l-51 -11 25 -82 c14 -45 28 -86 32 -90 6 -7 369 50 515 81 l40 8 0 94 c0 94 0
95 -25 97 -14 1 -29 0 -35 -2z"/>
<path d="M2830 1920 c-200 -10 -365 -25 -527 -46 l-123 -17 0 -513 c0 -449 2
-514 15 -514 13 0 15 61 17 463 l3 462 100 17 c237 39 439 52 815 53 224 0
415 -5 495 -13 131 -13 375 -48 408 -58 16 -5 17 -36 17 -465 0 -403 2 -459
15 -459 13 0 15 61 13 512 l-3 512 -30 7 c-40 10 -278 36 -440 49 -195 14
-589 19 -775 10z"/>
<path d="M2068 1837 l-46 -12 -4 -495 -3 -495 53 -3 52 -3 0 510 c0 281 -1
511 -2 510 -2 0 -24 -6 -50 -12z"/>
<path d="M4131 1337 l4 -507 52 0 c46 0 53 3 58 23 8 30 2 964 -6 971 -4 4
-30 9 -59 13 l-52 6 3 -506z"/>
<path d="M1922 1795 l-32 -14 2 -473 3 -473 31 -1 32 -1 4 481 c2 265 2 484
-1 488 -3 4 -21 0 -39 -7z"/>
<path d="M4300 1330 c0 -264 1 -483 3 -487 1 -5 16 -8 32 -8 l30 0 3 475 c2
438 1 476 -15 488 -9 6 -25 12 -35 12 -17 0 -18 -24 -18 -480z"/>
<path d="M2895 1773 c-191 -6 -504 -37 -607 -59 l-28 -6 0 -439 0 -439 868 2
867 3 3 432 c2 418 2 433 -17 442 -27 15 -332 48 -551 61 -170 9 -330 10 -535
3z m373 -210 l2 -183 -140 0 -140 0 0 178 c0 98 3 182 7 186 4 3 66 5 137 4
l131 -3 3 -182z m248 171 c28 -5 36 -54 33 -203 -2 -163 -1 -161 -63 -161 -28
0 -81 3 -117 6 l-66 7 -1 178 c0 157 2 178 16 182 19 4 166 -2 198 -9z m-556
-173 l0 -179 -114 -7 c-63 -4 -120 -4 -125 0 -7 4 -9 59 -6 163 3 86 5 165 5
174 0 21 21 25 143 27 l97 1 0 -179z m-280 -10 c0 -154 -2 -180 -16 -185 -9
-3 -49 -6 -90 -6 l-74 0 0 180 0 179 58 4 c31 2 72 4 90 5 l32 2 0 -179z
m1076 162 c11 -4 14 -41 14 -179 l0 -174 -39 0 c-21 0 -65 3 -97 6 l-59 6 2
177 c2 97 3 178 3 180 0 5 159 -9 176 -16z m-1290 -70 c6 -58 0 -281 -9 -289
-1 -1 -37 -6 -79 -10 l-77 -7 -6 34 c-3 19 -5 97 -3 174 l3 140 70 11 c39 7
75 12 82 13 7 1 14 -24 19 -66z m1425 56 c57 -10 70 -16 75 -33 2 -12 3 -88 2
-171 -3 -172 3 -162 -104 -150 l-64 7 0 179 c0 119 4 179 11 179 5 0 41 -5 80
-11z m-931 -604 l0 -236 -120 3 -121 3 0 225 -1 225 74 6 c40 3 94 6 121 7
l47 2 0 -235z m310 0 l0 -235 -140 0 -140 0 0 235 0 235 140 0 140 0 0 -235z
m268 221 c9 -10 15 -282 7 -369 l-7 -87 -118 0 -118 0 1 236 1 237 115 -6 c62
-4 116 -9 119 -11z m-858 -226 l0 -230 -89 0 -89 0 -4 97 c-1 53 -1 154 0 225
l4 127 76 4 c43 1 83 4 90 5 9 2 12 -50 12 -228z m1073 213 c16 -4 17 -21 15
-221 l-3 -217 -95 -3 -95 -3 2 228 c1 125 3 230 3 231 0 5 150 -8 173 -15z
m-1293 -223 l0 -221 -82 3 -83 3 2 210 3 210 52 6 c29 3 65 6 81 7 l27 2 0
-220z m1492 199 c17 -9 18 -23 16 -212 l-3 -202 -82 -3 -83 -3 0 222 0 222 66
-7 c37 -4 75 -11 86 -17z"/>
<path d="M4418 1296 l2 -454 28 -3 c15 -2 179 -3 365 -1 l337 3 0 45 c0 40 -3
47 -35 65 -49 29 -85 99 -85 163 0 113 91 191 213 184 l62 -3 16 98 c9 54 19
120 23 147 l6 48 -47 11 c-27 6 -181 33 -344 61 -163 27 -343 59 -400 70 -57
11 -113 20 -124 20 -20 0 -20 -6 -17 -454z"/>
<path d="M271 1232 c-52 -26 -76 -65 -76 -122 0 -57 24 -95 78 -125 36 -20 37
-21 37 -82 0 -56 2 -63 20 -63 18 0 20 7 20 63 l1 62 42 20 c59 28 90 78 84
134 -3 24 -13 55 -24 70 -24 33 -79 61 -118 61 -16 0 -45 -8 -64 -18z"/>
<path d="M583 1230 c-92 -56 -82 -201 17 -247 l39 -18 1 -62 c0 -56 2 -63 20
-63 18 0 20 7 20 63 l0 64 40 16 c101 39 108 201 10 252 -41 21 -109 19 -147
-5z"/>
<path d="M5143 1230 c-41 -25 -63 -68 -63 -122 0 -59 28 -100 85 -127 l47 -22
-4 -59 c-3 -52 -1 -60 15 -60 14 0 17 10 17 63 l0 62 40 17 c104 43 108 211 5
254 -48 20 -104 18 -142 -6z"/>
<path d="M5544 1236 c-105 -46 -107 -213 -3 -254 43 -17 42 -15 43 -87 1 -39
5 -50 19 -53 15 -3 17 5 17 60 l0 63 40 17 c50 21 80 68 80 126 0 57 -25 98
-75 122 -48 23 -78 25 -121 6z"/>
<path d="M5865 1236 c-52 -23 -78 -60 -82 -118 -5 -67 21 -113 77 -136 l40
-17 0 -63 c0 -55 2 -63 18 -60 13 3 18 15 20 64 3 61 3 61 42 77 49 19 80 67
80 125 0 58 -23 98 -70 122 -45 23 -82 25 -125 6z"/>
<path d="M103 794 c-18 -48 -41 -45 883 -111 762 -54 1638 -109 2039 -128 72
-4 216 -1 320 5 195 11 1679 109 2045 135 113 8 322 21 465 30 143 9 270 21
283 26 26 10 29 35 5 47 -10 4 -423 3 -918 -4 -1502 -20 -4651 -13 -5028 11
-76 5 -88 4 -94 -11z"/>
<path d="M107 623 c-11 -11 -8 -40 6 -51 6 -5 102 -17 212 -26 1983 -160 2632
-208 2795 -208 69 -1 213 7 320 16 107 9 757 59 1445 112 756 57 1255 100
1263 106 7 6 12 21 10 32 -4 30 -61 31 -383 6 -148 -11 -355 -27 -460 -35
-1173 -91 -1981 -149 -2125 -152 -109 -3 -265 1 -415 11 -596 41 -1718 126
-2321 176 -254 21 -336 24 -347 13z"/>
</g>
</svg>
