<?xml version="1.0" standalone="no"?>
<!DOCTYPE svg PUBLIC "-//W3C//DTD SVG 20010904//EN"
 "http://www.w3.org/TR/2001/REC-SVG-20010904/DTD/svg10.dtd">
<svg version="1.0" xmlns="http://www.w3.org/2000/svg"
 width="145.455688pt" height="119.769703pt" viewBox="0 0 145.455688 119.769703"
 preserveAspectRatio="xMidYMid meet">
<metadata>
Created by potrace 1.12, written by Peter Selinger 2001-2015
</metadata>
<g transform="translate(-42.544312,143.769703) scale(0.100000,-0.100000)"
fill="#000000" stroke="none">
<path d="M1138 1421 c-14 -12 -38 -21 -53 -21 -63 0 -114 -58 -102 -116 4 -20
-2 -33 -26 -54 -62 -55 -26 -150 57 -150 31 0 76 30 76 50 0 6 13 10 28 10 16
0 32 3 36 7 4 4 25 6 47 4 48 -3 81 16 99 58 10 24 19 31 41 31 18 0 41 11 61
29 86 76 -9 209 -111 157 -17 -9 -31 -22 -31 -29 0 -6 -8 -2 -18 10 -25 33
-71 39 -104 14z"/>
<path d="M877 1370 c-14 -11 -37 -20 -51 -20 -64 0 -109 -47 -105 -109 3 -32
-2 -43 -26 -63 -58 -51 -24 -148 53 -148 24 0 42 8 64 30 16 17 39 30 51 31
39 1 57 12 47 29 -22 34 -1 117 34 137 7 4 15 31 18 61 4 44 2 54 -13 62 -26
15 -43 12 -72 -10z"/>
<path d="M927 928 c-4 -46 -7 -129 -7 -185 l0 -101 -39 -31 -38 -30 -7 106
c-3 58 -6 144 -6 190 l0 83 -74 0 -74 0 -8 -262 -9 -262 -85 -69 c-47 -39
-101 -83 -120 -98 l-35 -29 728 0 727 0 0 74 0 75 -110 58 -110 58 0 95 -1 95
-166 125 c-91 69 -172 126 -179 128 -7 2 -60 -35 -118 -82 -58 -47 -107 -86
-110 -86 -3 0 -6 21 -6 48 0 26 -3 77 -7 115 l-6 67 -67 0 -67 0 -6 -82z m693
-350 l0 -97 110 -58 110 -58 0 -42 0 -43 -135 0 c-101 0 -135 3 -135 13 0 6
-1 83 -1 170 l-2 157 -31 27 -31 26 -3 -197 -2 -196 -25 0 -25 0 0 216 c0 212
0 216 -22 235 -13 10 -26 18 -30 19 -5 0 -8 -106 -8 -235 l0 -235 -30 0 -30 0
0 305 0 305 145 -107 144 -108 1 -97z"/>
</g>
</svg>
