<?xml version="1.0" standalone="no"?>
<!DOCTYPE svg PUBLIC "-//W3C//DTD SVG 20010904//EN"
 "http://www.w3.org/TR/2001/REC-SVG-20010904/DTD/svg10.dtd">
<svg version="1.0" xmlns="http://www.w3.org/2000/svg"
 width="314.000000pt" height="239.987342pt" viewBox="0 0 314.000000 239.987342"
 preserveAspectRatio="xMidYMid meet">
<metadata>
Created by potrace 1.12, written by Peter Selinger 2001-2015
</metadata>
<g transform="translate(-70.000000,312.000000) scale(0.100000,-0.100000)"
fill="#000000" stroke="none">
<path d="M2069 2958 c-93 -90 -176 -173 -184 -185 -9 -14 -15 -47 -15 -85 l0
-62 188 187 c130 130 195 187 210 187 19 0 176 -146 395 -366 4 -4 7 23 7 61
l0 68 -57 55 c-32 30 -115 110 -184 178 -108 106 -130 124 -158 124 -27 0 -55
-22 -202 -162z"/>
<path d="M2063 2754 l-193 -186 0 -829 0 -829 90 0 90 0 0 223 c0 269 7 305
75 365 24 21 63 44 86 51 112 34 237 -36 269 -150 6 -19 10 -136 10 -261 l0
-228 90 0 90 0 0 829 0 828 -191 184 c-105 101 -199 185 -208 187 -9 1 -94
-73 -208 -184z m297 -67 c82 -57 86 -172 8 -242 -33 -30 -45 -35 -89 -35 -60
0 -106 20 -134 58 -15 21 -20 43 -20 94 0 57 4 70 25 93 59 63 147 76 210 32z
m-120 -662 l0 -215 -125 0 -125 0 0 215 0 215 125 0 125 0 0 -215z m310 0 l0
-215 -125 0 -125 0 0 215 0 215 125 0 125 0 0 -215z"/>
<path d="M1088 2433 c-98 -99 -125 -131 -118 -143 8 -13 68 -15 425 -15 l415
0 0 143 0 142 -298 0 -297 0 -127 -127z"/>
<path d="M1117 2213 c-4 -3 -7 -107 -7 -230 l0 -223 350 0 350 0 -2 228 -3
227 -341 3 c-187 1 -343 -1 -347 -5z m313 -188 l0 -85 -135 0 -135 0 0 85 0
85 135 0 135 0 0 -85z m328 -2 l3 -83 -136 0 -135 0 0 85 0 86 133 -3 132 -3
3 -82z"/>
<path d="M827 1575 c-71 -68 -127 -130 -125 -137 7 -21 114 -25 623 -24 l480
1 3 143 3 142 -428 0 -428 -1 -128 -124z"/>
<path d="M2732 1558 l3 -143 513 -1 c281 0 529 2 549 5 23 4 39 12 41 22 2 10
-46 63 -125 138 l-128 121 -428 0 -428 0 3 -142z"/>
<path d="M870 1135 l0 -225 460 -2 c253 -2 465 -2 470 0 6 2 10 88 10 228 l0
224 -470 0 -470 0 0 -225z m430 -15 l0 -110 -170 0 -170 0 0 110 0 110 170 0
170 0 0 -110z m420 0 l0 -110 -170 0 -170 0 0 110 0 110 170 0 170 0 0 -110z"/>
<path d="M2731 1135 l-2 -225 421 -1 c231 -1 427 -1 435 -1 8 0 32 0 53 1 l37
1 0 225 1 225 -472 0 -472 0 -1 -225z m849 115 l0 -30 -375 0 -375 0 0 30 0
30 375 0 375 0 0 -30z m-2 -128 l3 -32 -373 2 c-350 3 -373 4 -376 21 -9 48
-17 47 375 45 l368 -3 3 -33z m-10 -102 c7 0 12 -13 12 -30 l0 -30 -375 0
-375 0 0 28 c0 16 2 31 4 33 3 3 571 2 734 -1z"/>
<path d="M700 785 l0 -65 1554 0 c855 0 1562 3 1570 6 12 5 16 21 16 65 l0 59
-1570 0 -1570 0 0 -65z"/>
</g>
</svg>
